<svg xmlns="http://www.w3.org/2000/svg" version="1.1" xmlns:xlink="http://www.w3.org/1999/xlink" xmlns:svgjs="http://svgjs.dev/svgjs" width="100%" height="100%" viewBox="0 0 1000 600"><rect width="1000" height="600" x="0" y="0" fill="#f9d342"/><g><circle r="166.66666666666666" cx="425.2206827799479" cy="447.4429222712424" fill="#292826" transform="matrix(0.4834579413991358,0,0,0.4834579413991358,0,83.68016259525744)"/><path d="M400.10844279668663 486.8247098795434L400.10844279668663 486.8247098795434Q402.72155258215207 486.43662426784056 406.7317705697475 485.89330441145665Q410.74198855734295 485.3241121809593 414.36412093323565 484.4961962093266Q417.9862533091283 483.6424078635805 419.3057443889178 482.5298957766992L419.3057443889178 482.5298957766992Q421.711875181475 484.57381333166717 422.56566352722115 490.80905549302526Q423.3935794988538 497.0701700284969 421.91885417438317 503.7711149238983L421.91885417438317 503.7711149238983Q420.78046971338836 509.54065435121305 417.9862533091283 514.5598949292357Q415.19203690486825 519.6050078813719 409.9916897080509 520.7175199682533L409.9916897080509 520.7175199682533Q405.5157689864121 521.64892543634 399.74622955909734 521.8300320551346Q393.9766901317826 522.0111386739293 388.00017171155974 521.8300320551346Q382.04952566545035 521.64892543634 377.1079022097682 521.4678188175453Q372.1662787540861 521.2867121987507 369.55316896862064 521.2867121987507L369.55316896862064 521.2867121987507Q366.96593155726873 521.2867121987507 361.4551158710892 521.3643293210912Q355.9701725590231 521.4678188175453 351.85646507497364 521.64892543634L351.85646507497364 521.64892543634Q347.0183311157456 522.2181176668373 341.24879168843086 522.399224285632Q335.4792522611161 522.5803309044267 330.641118301888 522.0111386739293Q325.7771119685464 521.4678188175453 323.5520877947838 520.1483277377558L323.5520877947838 520.1483277377558Q324.84570650045976 517.5610903264039 325.7771119685464 512.2313812590191Q326.7085174366331 506.9275445657476 327.2777096671305 500.5888129079355Q327.84690189762796 494.2759536242368 327.6399229047198 488.48054182280856L327.6399229047198 488.48054182280856L327.2777096671305 454.406625115304L327.2777096671305 438.57273215783033Q327.2777096671305 431.8717872624289 327.17422017067645 427.3958665407901Q327.0966030483359 422.91994581915134 327.0966030483359 422.55773258156205L327.0966030483359 422.55773258156205Q327.0966030483359 416.4001075425445 326.5274108178385 409.3110770354403Q325.98409096145457 402.2479189024496 325.2337921121625 395.8056977481833Q324.48349326287047 389.3893489680306 323.91430103237303 385.3015138580946L323.91430103237303 385.3015138580946Q323.1898745571945 382.1192118421318 322.80178894549175 379.040399322623Q322.43957570790246 375.9874591772278 322.62068232669714 373.555456010557L322.62068232669714 373.555456010557Q323.91430103237303 374.1246482410544 329.7873299561419 374.59035097509775Q335.66035887991075 375.0560537091411 343.4738158621935 375.41826694673034L343.4738158621935 375.41826694673034Q344.0430080926909 375.41826694673034 348.8811420519189 375.5217564431845Q353.71927601114703 375.59937356552496 360.91179601470526 375.78048018431963Q368.07844364415007 375.9874591772278 375.81428350409226 376.0650762995683Q383.5242509899209 376.16856579602245 389.8629826477331 376.16856579602245Q396.20171430554524 376.16856579602245 399.17703732859997 375.9874591772278L399.17703732859997 375.9874591772278Q406.8093876920881 375.59937356552496 412.139096759473 374.77145759389236Q417.4429334527444 373.91766924814624 419.3057443889178 372.44294392367567L419.3057443889178 372.44294392367567Q421.5307685626804 374.305754859849 423.4970689953078 379.4284849343258Q425.43749705382174 384.55121500880256 425.64447604672995 390.1396478173227L425.64447604672995 390.1396478173227Q425.64447604672995 395.54697400704816 423.10898338360505 400.28161846982215Q420.59936309459374 405.04213530670967 414.0795248179869 406.7238396240884L414.0795248179869 406.7238396240884Q411.6733940254296 407.2671594804723 406.55066395095287 407.65524509217505Q401.4279338764761 408.01745832976434 396.6674170395886 408.1209478262184Q391.9069002027011 408.19856494855895 389.8629826477331 408.01745832976434L389.8629826477331 408.01745832976434Q384.09344322041835 407.4482660992669 377.9358181814008 409.23345991309975Q371.8040655164968 410.99278135281907 367.50925141365263 413.8904872535332Q363.240309684922 416.7623207801338 363.03333069201386 420.1257294148913L363.03333069201386 420.1257294148913Q362.8522240732192 423.28215905674057 365.64644047747925 425.3519489858221Q368.4406568817393 427.3958665407901 373.0200670998322 428.6118681241255Q377.5736049438116 429.8019973333474 382.7998245147424 430.19008294505016Q388.00017171155974 430.55229618263945 392.6571990519932 430.3711895638448L392.6571990519932 430.3711895638448Q396.3828209243399 430.00897632625555 401.22095488356797 429.0775708581688Q406.0849612169095 428.14616539008216 407.19747330379084 427.2147599219955L407.19747330379084 427.2147599219955Q409.60360409634814 429.2586774769635 410.6384990608889 434.8471102854836Q411.6733940254296 440.4355430940037 410.5350095644348 446.3861891401131L410.5350095644348 446.3861891401131Q409.60360409634814 451.2243230993411 406.8093876920881 455.33803058339066Q404.015171287828 459.42586569332667 398.9959307098053 460.9264633919108L398.9959307098053 460.9264633919108Q395.08920221866396 462.0389754787921 392.2949858144039 462.3235715940408Q389.50076941014385 462.60816770928955 389.50076941014385 462.60816770928955L389.50076941014385 462.60816770928955Q378.50501041189824 462.60816770928955 370.95027717075067 466.41140670397687Q363.4214163037166 470.24051807277766 362.6711174544246 475.44086526959495L362.6711174544246 475.44086526959495Q361.9208186051325 479.9167859912338 364.63741788705204 483.6424078635805Q367.328144794858 487.3680297359272 372.55436436578884 487.75611534763004L372.55436436578884 487.75611534763004Q376.0730072452275 487.93722196642466 381.583822931407 487.8337324699706Q387.068766243473 487.75611534763004 392.37260293674444 487.47151923238135Q397.70231200412934 487.1869231171326 400.10844279668663 486.8247098795434ZM527.1676720681787 504.31443478028217L527.1676720681787 504.31443478028217Q528.0990775362653 505.996139097661 527.8144814210166 509.54065435121305Q527.529885305768 513.0851696047653 525.7705638660486 516.3450887430686Q523.9853700522158 519.6050078813719 520.4408547986636 520.7175199682533L520.4408547986636 520.7175199682533Q517.1033185380197 521.8300320551346 511.79948184474836 520.8986265870478Q506.4697727773634 519.9672211189613 501.3470427028866 517.8198140675393Q496.22431262840985 515.6982793902306 493.4300962241498 513.2662762235598L493.4300962241498 513.2662762235598Q494.9306939227339 510.6531664380944 493.9992884546473 507.5743539185856Q493.06788298656056 504.5214137731904 492.13647751847384 502.83970945581166L492.13647751847384 502.83970945581166Q491.9553708996792 502.45162384410884 490.84285881279794 500.79579190084365Q489.70447435180307 499.1140875834649 488.04864240853783 497.6134898848808Q486.3669380911591 496.1387645604102 484.11604154328296 496.5009777979995L484.11604154328296 496.5009777979995Q483.1846360751963 496.6820844167941 481.6064212542716 497.79459650367545Q480.02820643334695 498.93298096467026 478.16539549717356 501.3391117572275L478.16539549717356 501.3391117572275Q475.7333923305028 504.5214137731904 476.12147794220556 507.9624395302884Q476.48369117979485 511.40346528738644 476.48369117979485 511.40346528738644L476.48369117979485 511.40346528738644Q476.48369117979485 511.40346528738644 474.80198686241613 513.628489461149Q473.1461549191509 515.8793860090252 470.35193851489083 518.2855168015825Q467.5577221106308 520.7175199682533 464.1943134758733 521.2867121987507L464.1943134758733 521.2867121987507Q462.33150253969995 521.4678188175453 458.1401779333098 520.8210094647075Q453.9488533269198 520.1483277377558 449.4729326052809 518.5701129168312Q444.9970118836422 516.9918980959065 442.4097744722903 514.1976816916465Q439.79666468682484 511.40346528738644 440.9091767737062 507.4967367962451L440.9091767737062 507.4967367962451Q441.47836900420356 505.45281924127704 444.9193947613016 500.5111957855949Q448.3604205183997 495.5695723299128 452.4482556283357 490.34335275898195L452.4482556283357 490.34335275898195Q456.38085649359056 485.1430055621646 458.5023911708991 478.9077634008065Q460.6497982223212 472.6466488653349 461.037883834024 465.7645973511389L461.037883834024 465.7645973511389Q461.2189904528186 460.1761645426187 460.1840954882778 454.7688383528933Q459.17507289785055 449.3615121631678 456.5619631123852 445.09257043443716L456.5619631123852 445.09257043443716L440.7280701549115 417.69372624822046Q443.34117994037695 416.5812141613391 447.61012166910757 415.46870207445784Q451.9049357719517 414.3561899875765 457.20877246522315 414.3561899875765Q462.51260915849457 414.3561899875765 467.81644585176593 416.2190009237499Q473.1461549191509 418.0818118599232 477.5962032666762 422.55773258156205L477.5962032666762 422.55773258156205Q477.98428887837895 422.91994581915134 479.9247169368929 425.14496999291396Q481.89101736952034 427.3958665407901 483.7538283056937 430.00897632625555L483.7538283056937 430.00897632625555Q487.47945017804045 434.66600366668894 489.4457506106679 435.8561328759109Q491.3861786691818 437.07213445924623 492.13647751847384 437.25324107804084L492.13647751847384 437.25324107804084Q494.1803950734419 437.460220070949 495.4998861532314 436.3218356099542Q496.7935048589073 435.2093235230729 497.72491032699395 433.5276192056941L497.72491032699395 433.5276192056941Q498.475209176286 432.4151071188128 500.2345306160053 428.79297474292014Q502.0197244298381 425.14496999291396 503.67555637310335 420.8760282641833Q505.3572606904821 416.5812141613391 505.53836730927674 414.1750833687819L505.53836730927674 414.1750833687819Q518.0347240061064 419.19432394680456 522.8728579653346 424.88624625177874Q527.7109919245626 430.55229618263945 526.7019693341354 436.78753834399754Q525.6670743695945 443.0486528794691 520.4408547986636 449.93070439366517L520.4408547986636 449.93070439366517Q520.0786415610744 450.6810032429573 519.0437465965337 451.79351532983856Q518.0347240061064 452.9060274167199 517.465531775609 453.65632626601194L517.465531775609 453.65632626601194Q515.421614220641 456.6316492890666 514.3091021337597 461.1075700107054Q513.1965900468783 465.5834907323442 513.5588032844677 470.7838379291615L513.5588032844677 470.7838379291615Q514.127995514965 480.48597822173116 519.3283427117824 490.34335275898195L519.3283427117824 490.34335275898195Q521.9414524972478 495.20735909232354 523.9077529298752 498.4672782306269Q525.8481809883892 501.72719736893026 527.1676720681787 504.31443478028217Z " fill="#f9d342" transform="matrix(0.4834579413991358,0,0,0.4834579413991358,0,83.68016259525744)"/><path d="M751.4504964136024 486.5333170272102L751.4504964136024 486.5333170272102Q754.0191828841585 486.1518289375237 757.961226477586 485.61774561196256Q761.9032700710136 485.05822974708894 765.4638255747548 484.24438848909097Q769.0243810784957 483.40511469178057 770.32144058343 482.3115155013458L770.32144058343 482.3115155013458Q772.6866667394866 484.3206861070283 773.525940536797 490.44992808132537Q774.3397817947949 496.60460259493493 772.890127053986 503.1916302768559L772.890127053986 503.1916302768559Q771.7710953242389 508.86308654352916 769.0243810784957 513.7969991701418Q766.2776668327526 518.7563443360668 761.165726430953 519.8499435265016L761.165726430953 519.8499435265016Q756.7658971299015 520.7655149417492 751.0944408632283 520.9435427169362Q745.422984596555 521.1215704921233 739.5480680153823 520.9435427169362Q733.698583973522 520.7655149417492 728.8409689648468 520.5874871665621Q723.9833539561714 520.4094593913751 721.4146674856154 520.4094593913751L721.4146674856154 520.4094593913751Q718.8714135543717 520.4094593913751 713.4542826808229 520.4857570093125Q708.0625843465864 520.5874871665621 704.018810595909 520.7655149417492L704.018810595909 520.7655149417492Q699.2629257444835 521.3250308066229 693.5914694778103 521.5030585818099Q687.920013211137 521.681086356997 683.1641283597114 521.1215704921233Q678.3828109689734 520.5874871665621 676.1956125881039 519.290427661628L676.1956125881039 519.290427661628Q677.4672395537257 516.7471737303842 678.3828109689734 511.5080706320225Q679.2983823842211 506.29440007297313 679.8578982490947 500.06342794142626Q680.4174141139683 493.85788834919185 680.2139537994688 488.1609995432062L680.2139537994688 488.1609995432062L679.8578982490947 454.66634526872775L679.8578982490947 439.1016312095169Q679.8578982490947 432.5146035275959 679.756168091845 428.11477422654445Q679.6798704739076 423.714944925493 679.6798704739076 423.3588893751189L679.6798704739076 423.3588893751189Q679.6798704739076 417.30594501875913 679.120354609034 410.3374292471516Q678.5862712834729 403.3943460148565 677.8487276434123 397.06164372605997Q677.1111840033516 390.75437397657583 676.551668138478 386.7360327652109L676.551668138478 386.7360327652109Q675.8395570377298 383.60783042978125 675.4580689480433 380.5813582516014Q675.1020133976692 377.5803186127339 675.2800411728563 375.1896599173649L675.2800411728563 375.1896599173649Q676.551668138478 375.74917578223847 682.324854562401 376.20696148986235Q688.098040986324 376.6647471974862 695.7786678586797 377.02080274786033L695.7786678586797 377.02080274786033Q696.3381837235534 377.02080274786033 701.0940685749788 377.12253290511Q705.8499534264045 377.1988305230473 712.9201993552617 377.3768582982344Q719.9650127448065 377.5803186127339 727.5693419992249 377.6566162306712Q735.1482387143308 377.75834638792094 741.3792108458777 377.75834638792094Q747.6101829774245 377.75834638792094 750.5349249983547 377.5803186127339L750.5349249983547 377.5803186127339Q758.0375240955234 377.1988305230473 763.2766271938851 376.3849892650494Q768.4902977529346 375.545715467739 770.32144058343 374.0960607269301L770.32144058343 374.0960607269301Q772.5086389642995 375.9272035574255 774.4415119520446 380.9628463412879Q776.3489524004774 385.99848912515023 776.5524127149769 391.49191761663644L776.5524127149769 391.49191761663644Q776.5524127149769 396.80731833293555 774.0600238623581 401.4614730271114Q771.5930675490519 406.14106026059966 765.1840676423179 407.794175315908L765.1840676423179 407.794175315908Q762.8188414862614 408.3282586414692 757.783198702399 408.7097467311557Q752.7475559185366 409.0658022815298 748.0679686850484 409.1675324387795Q743.3883814515601 409.24383005671683 741.3792108458777 409.0658022815298L741.3792108458777 409.0658022815298Q735.7077545792044 408.5062864166562 729.6548102228446 410.2611316292143Q723.6272984057973 411.99054430245997 719.4054968799329 414.8389887054528Q715.2091278933809 417.6620005691332 715.0056675788815 420.9682306797499L715.0056675788815 420.9682306797499Q714.8276398036944 424.07100047586715 717.5743540494375 426.105603620862Q720.3210682951806 428.11477422654445 724.8226277534818 429.31010357422895Q729.2987546724705 430.480000382601 734.4361276135826 430.86148847228753Q739.5480680153823 431.2175440226617 744.1259250916207 431.0395162474746L744.1259250916207 431.0395162474746Q747.7882107526116 430.6834606971005 752.5440956040371 429.7678892818528Q757.3254129947752 428.8523178666051 758.4190121852099 427.9367464513574L758.4190121852099 427.9367464513574Q760.7842383412665 429.9459170570399 761.8015399137639 435.4393455485261Q762.8188414862614 440.93277404001225 761.6998097565142 446.78225808187256L761.6998097565142 446.78225808187256Q760.7842383412665 451.53814293329816 758.0375240955234 455.58191668397546Q755.2908098497803 459.60025789534035 750.3568972231676 461.0753451754617L750.3568972231676 461.0753451754617Q746.5165837869898 462.16894436589644 743.7698695412466 462.4487022983332Q741.0231552955036 462.72846023077005 741.0231552955036 462.72846023077005L741.0231552955036 462.72846023077005Q730.2143260877183 462.72846023077005 722.7880246084869 466.46704350969816Q715.387155668568 470.2310593279387 714.6496120285074 475.3429997297383L714.6496120285074 475.3429997297383Q713.9120683884466 479.7428290307898 716.5824850162525 483.40511469178057Q719.2274691047458 487.06740035277136 724.3648420458579 487.4488884424579L724.3648420458579 487.4488884424579Q727.8236673923493 487.626916217645 733.2407982658981 487.52518606039524Q738.6324966001346 487.4488884424579 743.846167159184 487.16913051002115Q749.0852702575459 486.8893725775843 751.4504964136024 486.5333170272102ZM922.8403788401095 508.1255429034685L922.8403788401095 508.1255429034685Q923.9594105698566 509.7786579587768 922.1282677393613 512.3473444293329Q920.2971249088658 514.9160308998889 916.9908947982492 517.3829872131953Q913.6846646876324 519.8499435265016 910.2258393411412 520.9435427169362L910.2258393411412 520.9435427169362Q906.9196092305244 522.037141907371 901.4261807390383 520.4094593913751Q895.932752247552 518.7563443360668 890.159565823629 514.9923285178263Q884.386379399706 511.25374523889815 880.5460659635282 506.29440007297313L880.5460659635282 506.29440007297313Q879.8085223234675 505.37882865772536 878.2571374254089 503.08990011960617Q876.7057525273503 500.80097158148686 874.8746096968549 498.43574542543035L874.8746096968549 498.43574542543035Q873.7810105064202 496.782630370122 871.7718399007376 494.391971674753Q869.7372367557429 492.02674551869643 866.4564391844385 490.2719003061383Q863.1502090738219 488.5424876328927 858.2162964472093 488.72051540807973L858.2162964472093 488.72051540807973Q850.8917251252276 489.07657095845383 845.3982966337414 493.7561581919421Q839.9048681422553 498.43574542543035 835.1489832908296 503.54768582723L835.1489832908296 503.54768582723Q830.3676659000917 508.6850587683421 829.0960389344699 512.0675864968962Q827.8244119688482 515.4501142254501 828.7399833840958 518.1968284711932L828.7399833840958 518.1968284711932Q825.077697723105 520.2059990768757 820.3981104896168 520.8672450989991Q815.7185232561285 521.5030585818099 811.3441264943895 520.9435427169362Q806.944297193338 520.4094593913751 804.0195551724079 518.9343721112539L804.0195551724079 518.9343721112539Q802.9005234426606 518.3748562463802 800.357269511417 516.7471737303842Q797.788583040861 515.094058675076 795.3216267275548 512.9831579121437Q792.829237874936 510.87225714921163 791.6593410665639 508.50703099315507Q790.4640117188794 506.1163722977861 791.9136664596883 503.92917391691657L791.9136664596883 503.92917391691657Q793.7448092901836 501.36048744636054 797.8648806587983 496.40114228043547Q801.984952027413 491.46722965382287 806.8425670360882 485.6940432298998Q811.7001820447636 479.9208568059768 816.100011345815 474.8089164041772Q820.4998406468665 469.67154346306506 822.865066802923 466.924829217322L822.865066802923 466.924829217322Q827.6209516543486 461.2533729506487 829.274066709657 456.0397023915993Q830.9271817649653 450.8260318325499 831.1052095401524 444.5950597010031L831.1052095401524 444.5950597010031Q831.2832373153394 434.5237741332784 825.9932691383526 425.3680599808014L825.9932691383526 425.3680599808014Q824.6962096334184 423.3588893751189 821.3136819048644 418.04348865881974Q817.9311541763104 412.72808794252063 813.4295947180092 406.0393301033499Q808.9534677990205 399.35057226417916 804.8333964304059 393.04330251469503Q800.7133250617912 386.7360327652109 797.966610816048 382.6159613965962Q795.219896570305 378.4958900279816 795.219896570305 378.4958900279816L795.219896570305 378.4958900279816Q797.788583040861 377.3768582982344 803.1802813750975 376.2832591077996Q808.5974122486464 375.1896599173649 815.3624677057544 375.01163214217786Q822.1275231628624 374.8336043669908 828.460225451659 376.3849892650494Q834.7674952011432 377.936374163108 839.1673245021946 382.33620346415944L839.1673245021946 382.33620346415944Q839.9048681422553 383.07374710422005 841.9140387479378 385.71873119271345Q843.9232093536201 388.3637152812068 846.3901656669265 391.56821523457376Q848.8825545195452 394.7727151879407 850.5102370355411 397.5194294336838L850.5102370355411 397.5194294336838Q853.0789235060972 401.56320318436116 857.1989948747118 404.30991743010424Q861.3190662433265 407.0566316758473 865.5408677691909 407.41268722622146L865.5408677691909 407.41268722622146Q869.2031534301816 407.794175315908 872.6874113159854 406.77687374341053Q876.1462366624767 405.7595721709131 879.8085223234675 402.3007468244218L879.8085223234675 402.3007468244218Q884.208351624519 398.638461163431 887.5145817351356 392.68724696432093Q890.7953793064399 386.7360327652109 892.9062800693721 381.14087411647495Q895.0171808323043 375.545715467739 895.1952086074914 373.18048931168244L895.1952086074914 373.18048931168244Q904.3509227599684 376.8427749726732 909.4882957010805 382.69225901453353Q914.6002361028802 388.5671755957063 916.0753233830014 395.433961210064Q917.5504106631228 402.3007468244218 916.1770535402511 408.786044349093Q914.8036964173796 415.29677441307666 911.1414107563888 420.4087148148763L911.1414107563888 420.4087148148763Q910.2258393411412 421.70577431981053 906.6398512980876 425.72411553117547Q903.0792957943465 429.7678892818528 898.7811966505449 434.60007175121564Q894.4576649674307 439.457686759891 890.9988396209394 443.2980001960688L890.9988396209394 443.2980001960688Q888.6081809255704 445.86668666662484 888.6081809255704 450.08848819248925L888.6081809255704 450.08848819248925Q888.6081809255704 455.2004285942889 891.9144110361872 460.51582931058806L891.9144110361872 460.51582931058806Q895.5766966971779 466.0092578020743 900.0528236161667 473.0540711916191Q904.5289505351554 480.12431712047635 909.106807611394 487.16913051002115Q913.6846646876324 494.21394389956595 917.3469503486233 499.8091025483019Q921.009236009614 505.37882865772536 922.8403788401095 508.1255429034685ZM1048.2736627290444 409.9813736967775L1048.2736627290444 409.9813736967775Q1046.086464348175 416.7464291538855 1041.5086072719364 419.87463148931516Q1036.9307501956978 422.97740128543234 1031.9968375690853 422.34158780262146Q1027.0374924031603 421.70577431981053 1023.5532345173565 417.4839727939462L1023.5532345173565 417.4839727939462Q1026.6814368527862 415.1187466378896 1025.4861075051017 412.27030223489675Q1024.2907781574172 409.4218578319039 1019.7129210811786 407.5144173834712Q1015.1350640049401 405.58154439572604 1007.9885204581456 406.14106026059966L1007.9885204581456 406.14106026059966Q1000.6639491361639 406.49711581097375 993.263080196245 410.8969451120252Q985.8367787170137 415.29677441307666 980.9028660904012 423.53691715030595Q975.943520924476 431.77705988753524 975.4094375989149 444.0355438361295L975.4094375989149 444.0355438361295Q974.8499217340413 456.6755158744102 977.9781240694709 464.5596030612654Q981.0808938655882 472.4182577088082 985.7604810990764 476.5383290774228Q990.4146357932523 480.6584004460375 995.1705206446777 482.4132456585956Q999.9518380354157 484.14265833184123 1002.8765800563459 484.70217419671485L1002.8765800563459 484.70217419671485Q1006.7168934925237 485.41428529746304 1011.7525362763861 485.6940432298998Q1016.7881790602485 485.97380116233666 1021.9255520013605 485.05822974708894Q1027.0374924031603 484.14265833184123 1030.6997780641511 481.9554599509717L1030.6997780641511 481.9554599509717Q1034.0060081747679 479.9208568059768 1038.9399208013804 476.5383290774228Q1043.8992659673054 473.1558013488688 1048.477123043544 468.93399982300446Q1053.0549801197824 464.73763083645247 1055.2421785006518 460.337801535401L1055.2421785006518 460.337801535401Q1061.4731506321987 464.5596030612654 1063.0245355302573 472.24022993362115Q1064.5759204283158 479.9208568059768 1061.651178407386 488.72051540807973Q1058.7264363864556 497.52017401018264 1051.4781626824115 505.3025310397881Q1044.2553215176795 513.0848880693936 1032.7089486698335 517.9170705387564Q1021.1880083612999 522.7746855474318 1005.4452665269021 522.4186299970577L1005.4452665269021 522.4186299970577Q998.1206952049204 522.2406022218706 988.6852231200065 519.6719157513145Q979.2497510350928 517.1032292807585 969.7379813322416 511.5080706320225Q960.2007790900782 505.938344522599 952.4184220604727 496.68090021287225Q944.6360650308673 487.4488884424579 940.6177238195023 473.7153172137424Q936.573950068825 459.9817459850269 938.4050928993204 441.28882959038634L938.4050928993204 441.28882959038634Q940.0582079546286 423.53691715030595 947.306481658673 410.71891733683816Q954.5293228234049 397.90091752337037 965.0583940987534 389.7370724040784Q975.587465374102 381.5986598240988 987.3881636150722 377.47858845548416Q999.2142943953552 373.3585170868695 1010.0231236031404 373.18048931168244L1010.0231236031404 373.18048931168244Q1020.8065202716134 372.7990012219959 1028.7923376157182 376.46128688298666Q1036.7527224205107 380.1235725439775 1041.6866350471234 385.8967589679005Q1046.6459802130485 391.6699453918235 1048.3753928862943 398.18067545580715Q1050.1048055595397 404.66597298047833 1048.2736627290444 409.9813736967775ZM1154.3019191225906 486.5333170272102L1154.3019191225906 486.5333170272102Q1156.8706055931466 486.1518289375237 1160.8126491865742 485.61774561196256Q1164.7546927800017 485.05822974708894 1168.315248283743 484.24438848909097Q1171.875803787484 483.40511469178057 1173.1728632924182 482.3115155013458L1173.1728632924182 482.3115155013458Q1175.5380894484747 484.3206861070283 1176.377363245785 490.44992808132537Q1177.191204503783 496.60460259493493 1175.7415497629743 503.1916302768559L1175.7415497629743 503.1916302768559Q1174.6225180332272 508.86308654352916 1171.875803787484 513.7969991701418Q1169.129089541741 518.7563443360668 1164.0171491399412 519.8499435265016L1164.0171491399412 519.8499435265016Q1159.6173198388897 520.7655149417492 1153.9458635722165 520.9435427169362Q1148.2744073055433 521.1215704921233 1142.3994907243705 520.9435427169362Q1136.5500066825102 520.7655149417492 1131.692391673835 520.5874871665621Q1126.8347766651596 520.4094593913751 1124.2660901946035 520.4094593913751L1124.2660901946035 520.4094593913751Q1121.72283626336 520.4094593913751 1116.305705389811 520.4857570093125Q1110.9140070555745 520.5874871665621 1106.8702333048973 520.7655149417492L1106.8702333048973 520.7655149417492Q1102.1143484534718 521.3250308066229 1096.4428921867984 521.5030585818099Q1090.7714359201252 521.681086356997 1086.0155510686996 521.1215704921233Q1081.2342336779616 520.5874871665621 1079.047035297092 519.290427661628L1079.047035297092 519.290427661628Q1080.318662262714 516.7471737303842 1081.2342336779616 511.5080706320225Q1082.1498050932094 506.29440007297313 1082.709320958083 500.06342794142626Q1083.2688368229565 493.85788834919185 1083.0653765084571 488.1609995432062L1083.0653765084571 488.1609995432062L1082.709320958083 454.66634526872775L1082.709320958083 439.1016312095169Q1082.709320958083 432.5146035275959 1082.6075908008331 428.11477422654445Q1082.5312931828958 423.714944925493 1082.5312931828958 423.3588893751189L1082.5312931828958 423.3588893751189Q1082.5312931828958 417.30594501875913 1081.9717773180223 410.3374292471516Q1081.4376939924612 403.3943460148565 1080.7001503524004 397.06164372605997Q1079.96260671234 390.75437397657583 1079.4030908474663 386.7360327652109L1079.4030908474663 386.7360327652109Q1078.6909797467179 383.60783042978125 1078.3094916570315 380.5813582516014Q1077.9534361066574 377.5803186127339 1078.1314638818444 375.1896599173649L1078.1314638818444 375.1896599173649Q1079.4030908474663 375.74917578223847 1085.1762772713892 376.20696148986235Q1090.9494636953123 376.6647471974862 1098.630090567668 377.02080274786033L1098.630090567668 377.02080274786033Q1099.1896064325415 377.02080274786033 1103.945491283967 377.12253290511Q1108.7013761353926 377.1988305230473 1115.7716220642499 377.3768582982344Q1122.8164354537946 377.5803186127339 1130.420764708213 377.6566162306712Q1137.9996614233191 377.75834638792094 1144.230633554866 377.75834638792094Q1150.4616056864127 377.75834638792094 1153.386347707343 377.5803186127339L1153.386347707343 377.5803186127339Q1160.8889468045115 377.1988305230473 1166.1280499028735 376.3849892650494Q1171.3417204619227 375.545715467739 1173.1728632924182 374.0960607269301L1173.1728632924182 374.0960607269301Q1175.3600616732876 375.9272035574255 1177.2929346610329 380.9628463412879Q1179.2003751094655 385.99848912515023 1179.4038354239651 391.49191761663644L1179.4038354239651 391.49191761663644Q1179.4038354239651 396.80731833293555 1176.9114465713465 401.4614730271114Q1174.44449025804 406.14106026059966 1168.0354903513062 407.794175315908L1168.0354903513062 407.794175315908Q1165.6702641952495 408.3282586414692 1160.6346214113873 408.7097467311557Q1155.598978627525 409.0658022815298 1150.9193913940367 409.1675324387795Q1146.2398041605484 409.24383005671683 1144.230633554866 409.0658022815298L1144.230633554866 409.0658022815298Q1138.5591772881926 408.5062864166562 1132.5062329318328 410.2611316292143Q1126.4787211147855 411.99054430245997 1122.2569195889212 414.8389887054528Q1118.060550602369 417.6620005691332 1117.8570902878696 420.9682306797499L1117.8570902878696 420.9682306797499Q1117.6790625126825 424.07100047586715 1120.4257767584256 426.105603620862Q1123.172491004169 428.11477422654445 1127.67405046247 429.31010357422895Q1132.150177381459 430.480000382601 1137.287550322571 430.86148847228753Q1142.3994907243705 431.2175440226617 1146.977347800609 431.0395162474746L1146.977347800609 431.0395162474746Q1150.6396334615997 430.6834606971005 1155.3955183130254 429.7678892818528Q1160.1768357037633 428.8523178666051 1161.2704348941982 427.9367464513574L1161.2704348941982 427.9367464513574Q1163.6356610502548 429.9459170570399 1164.652962622752 435.4393455485261Q1165.6702641952495 440.93277404001225 1164.5512324655024 446.78225808187256L1164.5512324655024 446.78225808187256Q1163.6356610502548 451.53814293329816 1160.8889468045115 455.58191668397546Q1158.1422325587685 459.60025789534035 1153.208319932156 461.0753451754617L1153.208319932156 461.0753451754617Q1149.368006495978 462.16894436589644 1146.621292250235 462.4487022983332Q1143.874578004492 462.72846023077005 1143.874578004492 462.72846023077005L1143.874578004492 462.72846023077005Q1133.0657487967064 462.72846023077005 1125.639447317475 466.46704350969816Q1118.2385783775562 470.2310593279387 1117.5010347374955 475.3429997297383L1117.5010347374955 475.3429997297383Q1116.7634910974348 479.7428290307898 1119.4339077252407 483.40511469178057Q1122.0788918137341 487.06740035277136 1127.2162647548462 487.4488884424579L1127.2162647548462 487.4488884424579Q1130.6750901013374 487.626916217645 1136.0922209748865 487.52518606039524Q1141.483919309123 487.4488884424579 1146.6975898681721 487.16913051002115Q1151.936692966534 486.8893725775843 1154.3019191225906 486.5333170272102ZM1297.309087676419 483.5831424669677L1297.309087676419 483.5831424669677Q1299.6997463717878 485.61774561196256 1300.513587629786 491.5689598110726Q1301.3528614270963 497.52017401018264 1299.877774146975 503.92917391691657L1299.877774146975 503.92917391691657Q1298.7841749565403 509.21914209390326 1295.85943293561 514.0767571025785Q1292.93469091468 518.9343721112539 1288.153373523942 519.8499435265016L1288.153373523942 519.8499435265016Q1286.3222306934465 520.2059990768757 1279.7352030115258 520.3077292341254Q1273.1481753296048 520.4094593913751 1264.2722191095645 520.3077292341254Q1255.3962628895242 520.2059990768757 1246.3168463549846 520.1297014589384Q1237.2628623597573 520.0279713016887 1230.2180489702125 520.1297014589384Q1223.1478030413552 520.2059990768757 1220.2230610204251 520.5874871665621L1220.2230610204251 520.5874871665621Q1212.7204619232564 521.859114132184 1204.938104893651 521.5030585818099Q1197.1557478640455 521.1215704921233 1194.0529780679283 519.290427661628L1194.0529780679283 519.290427661628Q1195.3246050335501 516.7471737303842 1196.2401764487977 511.5080706320225Q1197.1557478640455 506.29440007297313 1197.7152637289191 500.06342794142626Q1198.2493470544803 493.85788834919185 1198.0713192792932 488.1609995432062L1198.0713192792932 488.1609995432062L1197.3337756392325 375.36768769255195Q1199.3429462449149 375.01163214217786 1204.3785890287772 375.1896599173649Q1209.4142318126396 375.36768769255195 1215.1111206186254 376.8427749726732L1215.1111206186254 376.8427749726732Q1221.31666021086 378.2924297134821 1226.2760053767847 382.33620346415944Q1231.2099180033974 386.3545446755243 1232.3035171938322 392.5855168070712L1232.3035171938322 392.5855168070712Q1232.6850052835189 394.5946874127536 1232.8630330587057 400.5459016118637Q1233.041060833893 406.49711581097375 1233.1427909911426 414.559230773016Q1233.2190886090798 422.62134573505824 1233.1427909911426 431.0395162474746Q1233.041060833893 439.457686759891 1233.041060833893 446.78225808187256Q1233.041060833893 454.1068294038542 1232.9647632159554 458.6846864800927Q1232.8630330587057 463.2625435563312 1232.8630330587057 463.2625435563312L1232.8630330587057 463.2625435563312Q1232.6850052835189 470.2310593279387 1234.3381203388271 475.8007854373622Q1235.9658028548229 481.39594408609815 1239.0940051902526 484.4987138822153L1239.0940051902526 484.4987138822153Q1241.459231346309 486.8893725775843 1244.9434892321128 487.804943992832Q1248.4277471179166 488.72051540807973 1253.5651200590287 489.07657095845383L1253.5651200590287 489.07657095845383Q1255.7523184398983 489.28003127295335 1260.4319056733866 489.07657095845383Q1265.0860603675624 488.8985431832668 1270.7575166342356 488.44075747564295Q1276.4544054402213 487.98297176801907 1282.0241315496446 487.24542812795846Q1287.6192901983807 486.5333170272102 1291.8156591849327 485.61774561196256Q1296.0374607107972 484.70217419671485 1297.309087676419 483.5831424669677ZM1418.724030353989 483.5831424669677L1418.724030353989 483.5831424669677Q1421.114689049358 485.61774561196256 1421.928530307356 491.5689598110726Q1422.7423715653538 497.52017401018264 1421.2927168245449 503.92917391691657L1421.2927168245449 503.92917391691657Q1420.19911763411 509.21914209390326 1417.2489430738676 514.0767571025785Q1414.3242010529377 518.9343721112539 1409.568316201512 519.8499435265016L1409.568316201512 519.8499435265016Q1407.7371733710168 520.2059990768757 1401.1501456890958 520.3077292341254Q1394.5631180071748 520.4094593913751 1385.661729247822 520.3077292341254Q1376.7857730277817 520.2059990768757 1367.7317890325546 520.1297014589384Q1358.6523724980148 520.0279713016887 1351.6075591084702 520.1297014589384Q1344.5627457189255 520.2059990768757 1341.6380036979951 520.5874871665621L1341.6380036979951 520.5874871665621Q1334.1354046008266 521.859114132184 1326.3530475712212 521.5030585818099Q1318.5706905416155 521.1215704921233 1315.442488206186 519.290427661628L1315.442488206186 519.290427661628Q1316.7395477111202 516.7471737303842 1317.6551191263677 511.5080706320225Q1318.5706905416155 506.29440007297313 1319.1047738671766 500.06342794142626Q1319.6642897320503 493.85788834919185 1319.4862619568632 488.1609995432062L1319.4862619568632 488.1609995432062L1318.7487183168025 375.36768769255195Q1320.757888922485 375.01163214217786 1325.7935317063473 375.1896599173649Q1330.8291744902097 375.36768769255195 1336.500630756883 376.8427749726732L1336.500630756883 376.8427749726732Q1342.73160288843 378.2924297134821 1347.6655155150424 382.33620346415944Q1352.6248606809675 386.3545446755243 1353.7184598714023 392.5855168070712L1353.7184598714023 392.5855168070712Q1354.0745154217764 394.5946874127536 1354.277975736276 400.5459016118637Q1354.456003511463 406.49711581097375 1354.5323011294001 414.559230773016Q1354.63403128665 422.62134573505824 1354.5323011294001 431.0395162474746Q1354.456003511463 439.457686759891 1354.456003511463 446.78225808187256Q1354.456003511463 454.1068294038542 1354.354273354213 458.6846864800927Q1354.277975736276 463.2625435563312 1354.277975736276 463.2625435563312L1354.277975736276 463.2625435563312Q1354.0745154217764 470.2310593279387 1355.7276304770846 475.8007854373622Q1357.380745532393 481.39594408609815 1360.4835153285103 484.4987138822153L1360.4835153285103 484.4987138822153Q1362.8741740238793 486.8893725775843 1366.3584319096828 487.804943992832Q1369.8426897954866 488.72051540807973 1374.9546301972864 489.07657095845383L1374.9546301972864 489.07657095845383Q1377.1672611174683 489.28003127295335 1381.821415811644 489.07657095845383Q1386.5010030451324 488.8985431832668 1392.1724593118056 488.44075747564295Q1397.843915578479 487.98297176801907 1403.4390742272149 487.24542812795846Q1409.0088003366384 486.5333170272102 1413.230601862503 485.61774561196256Q1417.4524033883672 484.70217419671485 1418.724030353989 483.5831424669677ZM1513.0278861245022 486.5333170272102L1513.0278861245022 486.5333170272102Q1515.5965725950584 486.1518289375237 1519.5386161884858 485.61774561196256Q1523.455227242601 485.05822974708894 1527.0412152856545 484.24438848909097Q1530.6017707893955 483.40511469178057 1531.8988302943296 482.3115155013458L1531.8988302943296 482.3115155013458Q1534.2640564503863 484.3206861070283 1535.1033302476965 490.44992808132537Q1535.9171715056948 496.60460259493493 1534.4420842255734 503.1916302768559L1534.4420842255734 503.1916302768559Q1533.3484850351385 508.86308654352916 1530.6017707893955 513.7969991701418Q1527.8550565436524 518.7563443360668 1522.7431161418529 519.8499435265016L1522.7431161418529 519.8499435265016Q1518.3432868408013 520.7655149417492 1512.671830574128 520.9435427169362Q1506.9749417681423 521.1215704921233 1501.125457726282 520.9435427169362Q1495.2759736844216 520.7655149417492 1490.4183586757465 520.5874871665621Q1485.5607436670712 520.4094593913751 1482.9920571965151 520.4094593913751L1482.9920571965151 520.4094593913751Q1480.4233707259589 520.4094593913751 1475.0316723917224 520.4857570093125Q1469.6399740574861 520.5874871665621 1465.5962003068087 520.7655149417492L1465.5962003068087 520.7655149417492Q1460.8403154553832 521.3250308066229 1455.1688591887098 521.5030585818099Q1449.4974029220368 521.681086356997 1444.7160855312989 521.1215704921233Q1439.9602006798732 520.5874871665621 1437.7730022990038 519.290427661628L1437.7730022990038 519.290427661628Q1439.0446292646254 516.7471737303842 1439.9602006798732 511.5080706320225Q1440.875772095121 506.29440007297313 1441.4352879599944 500.06342794142626Q1441.9693712855553 493.85788834919185 1441.7913435103685 488.1609995432062L1441.7913435103685 488.1609995432062L1441.4352879599944 454.66634526872775L1441.4352879599944 439.1016312095169Q1441.4352879599944 432.5146035275959 1441.3335578027447 428.11477422654445Q1441.2572601848074 423.714944925493 1441.2572601848074 423.3588893751189L1441.2572601848074 423.3588893751189Q1441.2572601848074 417.30594501875913 1440.6977443199337 410.3374292471516Q1440.1382284550602 403.3943460148565 1439.426117354312 397.06164372605997Q1438.6885737142513 390.75437397657583 1438.129057849378 386.7360327652109L1438.129057849378 386.7360327652109Q1437.3915142093172 383.60783042978125 1437.0354586589428 380.5813582516014Q1436.679403108569 377.5803186127339 1436.8574308837558 375.1896599173649L1436.8574308837558 375.1896599173649Q1438.129057849378 375.74917578223847 1443.9022442733008 376.20696148986235Q1449.6754306972236 376.6647471974862 1457.3560575695794 377.02080274786033L1457.3560575695794 377.02080274786033Q1457.915573434453 377.02080274786033 1462.6714582858788 377.12253290511Q1467.4273431373042 377.1988305230473 1474.472156526849 377.3768582982344Q1481.5424024557062 377.5803186127339 1489.1212991708123 377.6566162306712Q1496.7256284252305 377.75834638792094 1502.9566005567774 377.75834638792094Q1509.1875726883243 377.75834638792094 1512.1123147092546 377.5803186127339L1512.1123147092546 377.5803186127339Q1519.6149138064231 377.1988305230473 1524.8285843654726 376.3849892650494Q1530.0676874638345 375.545715467739 1531.8988302943296 374.0960607269301L1531.8988302943296 374.0960607269301Q1534.0860286751993 375.9272035574255 1536.0189016629445 380.9628463412879Q1537.9263421113772 385.99848912515023 1538.104369886564 391.49191761663644L1538.104369886564 391.49191761663644Q1538.104369886564 396.80731833293555 1535.6374135732578 401.4614730271114Q1533.1704572599515 406.14106026059966 1526.7614573532176 407.794175315908L1526.7614573532176 407.794175315908Q1524.3707986578486 408.3282586414692 1519.3351558739862 408.7097467311557Q1514.2995130901238 409.0658022815298 1509.645358395948 409.1675324387795Q1504.9657711624598 409.24383005671683 1502.9566005567774 409.0658022815298L1502.9566005567774 409.0658022815298Q1497.2851442901042 408.5062864166562 1491.2321999337444 410.2611316292143Q1485.2046881166968 411.99054430245997 1480.9828865908325 414.8389887054528Q1476.7610850649683 417.6620005691332 1476.5830572897812 420.9682306797499L1476.5830572897812 420.9682306797499Q1476.4050295145942 424.07100047586715 1479.1517437603372 426.105603620862Q1481.8984580060803 428.11477422654445 1486.3745849250693 429.31010357422895Q1490.8761443833703 430.480000382601 1495.9880847851698 430.86148847228753Q1501.125457726282 431.2175440226617 1505.7033148025205 431.0395162474746L1505.7033148025205 431.0395162474746Q1509.365600463511 430.6834606971005 1514.121485314937 429.7678892818528Q1518.8773701663624 428.8523178666051 1519.9964018961095 427.9367464513574L1519.9964018961095 427.9367464513574Q1522.3616280521662 429.9459170570399 1523.378929624664 435.4393455485261Q1524.3707986578486 440.93277404001225 1523.2771994674138 446.78225808187256L1523.2771994674138 446.78225808187256Q1522.3616280521662 451.53814293329816 1519.6149138064231 455.58191668397546Q1516.86819956068 459.60025789534035 1511.9342869340674 461.0753451754617L1511.9342869340674 461.0753451754617Q1508.0939734978895 462.16894436589644 1505.3472592521464 462.4487022983332Q1502.6005450064033 462.72846023077005 1502.6005450064033 462.72846023077005L1502.6005450064033 462.72846023077005Q1491.791715798618 462.72846023077005 1484.3654143193867 466.46704350969816Q1476.9645453794678 470.2310593279387 1476.2270017394071 475.3429997297383L1476.2270017394071 475.3429997297383Q1475.4894580993462 479.7428290307898 1478.1344421878398 483.40511469178057Q1480.8048588156455 487.06740035277136 1485.916799217445 487.4488884424579L1485.916799217445 487.4488884424579Q1489.4010571032488 487.626916217645 1494.8181879767978 487.52518606039524Q1500.2098863110343 487.4488884424579 1505.4235568700838 487.16913051002115Q1510.6372274291332 486.8893725775843 1513.0278861245022 486.5333170272102ZM1673.2528837928496 391.84797316701054L1673.2528837928496 391.84797316701054Q1673.608939343224 394.9761755024402 1673.7106695004734 402.3770444423591Q1673.8123996577235 409.80334592159045 1673.8123996577235 420.0526592645022Q1673.8123996577235 430.301972607414 1673.8123996577235 441.6703176800729Q1673.8123996577235 453.01323021341943 1673.7106695004734 464.17811497157885Q1673.608939343224 475.3429997297383 1673.5326417252866 484.4987138822153Q1673.430911568037 493.65442803469233 1673.430911568037 499.4276144586153Q1673.430911568037 505.2008008825383 1673.608939343224 505.938344522599L1673.608939343224 505.938344522599Q1673.9904274329103 507.38799926340783 1673.0748560176628 510.5924992167748Q1672.1592846024148 513.7969991701418 1670.1501139967324 516.6454435731346Q1668.1155108517376 519.4938879761274 1665.0127410556204 520.0279713016887L1665.0127410556204 520.0279713016887Q1662.08799903469 520.7655149417492 1656.8743284756408 520.1297014589384Q1651.635225377279 519.4938879761274 1646.4215548182297 517.2049594380082Q1641.2078842591802 514.9160308998889 1638.105114463063 510.5162015988375L1638.105114463063 510.5162015988375Q1636.2739716325675 507.94751512828145 1632.5099558143272 503.08990011960617Q1628.7459399960865 498.23228511093083 1624.2698130770975 492.48453122632026Q1619.793686158109 486.71134480239726 1615.4701544749948 481.2942139288484Q1611.1720553311932 475.90251559461194 1608.247313310263 471.9604720011843Q1605.322571289333 468.01842840775674 1604.5850276492722 467.10285699250903L1604.5850276492722 467.10285699250903Q1602.931912593964 464.5596030612654 1599.1933293150357 461.88918643345966Q1595.4293134967952 459.24420234496625 1593.2421151159256 459.9817459850269L1593.2421151159256 459.9817459850269Q1591.0294841957436 460.6938570857751 1589.9358850053088 464.4578729040157Q1588.842285814874 468.2218887222562 1588.4607977251876 472.4182577088082L1588.4607977251876 472.4182577088082Q1588.1047421748137 475.1649719545513 1588.1047421748137 480.7601306032872Q1588.1047421748137 486.32985671271075 1588.2064723320634 492.2047732938835Q1588.2827699500006 498.0542573357438 1588.1047421748137 501.71654299673463L1588.1047421748137 501.71654299673463Q1587.9267143996265 508.1255429034685 1592.1230833861785 514.0004594846412L1592.1230833861785 514.0004594846412Q1590.6734286453695 514.9160308998889 1586.2735993443182 516.8234713483216Q1581.8737700432669 518.7563443360668 1576.9398574166541 520.2059990768757Q1571.980512250729 521.681086356997 1568.5216869042376 521.5030585818099L1568.5216869042376 521.5030585818099Q1562.646770323065 521.1215704921233 1558.1706434040764 515.4501142254501Q1553.669083945775 509.7786579587768 1553.491056170588 501.36048744636054L1553.491056170588 501.36048744636054Q1553.491056170588 499.70737239105216 1553.414758552651 492.10304313663374Q1553.3130283954008 484.4987138822153 1553.2112982381511 473.1558013488688Q1553.135000620214 461.8128888155223 1553.135000620214 448.613400912368Q1553.135000620214 435.4393455485261 1553.0332704629643 422.5196155778085Q1552.9569728450267 409.6253181464034 1552.855242687777 398.89278655655534Q1552.7535125305274 388.18568750601975 1552.7535125305274 381.7766875992859Q1552.7535125305274 375.36768769255195 1552.7535125305274 375.36768769255195L1552.7535125305274 375.36768769255195Q1563.9438298279993 375.01163214217786 1571.6244567003548 377.02080274786033Q1579.3050835727106 379.02997335354274 1584.442456513823 384.3453740698419L1584.442456513823 384.3453740698419Q1586.6296548946923 386.3545446755243 1590.8514564205568 391.49191761663644Q1595.073257946421 396.6038580184361 1600.1089007302833 403.11458808241974Q1605.1445435141457 409.6253181464034 1609.9767259835087 416.03431805313727Q1614.834340992184 422.4433179598712 1618.4966266531746 427.27550042923406Q1622.1589123141655 432.13311543790934 1623.2525115046003 433.60820271803067L1623.2525115046003 433.60820271803067Q1626.2026860648427 437.27048837902146 1629.2037257037102 439.38138914195366Q1632.2301978818903 441.4668573655734 1634.2393684875726 440.7547462648252L1634.2393684875726 440.7547462648252Q1638.6391977886244 439.27965898470393 1638.6391977886244 428.47082977691855L1638.6391977886244 428.47082977691855L1638.2831422382499 375.36768769255195Q1640.2923128439325 375.01163214217786 1645.3279556277948 375.1896599173649Q1650.363598411657 375.36768769255195 1656.0350546783304 376.8427749726732L1656.0350546783304 376.8427749726732Q1662.2660268098773 378.2924297134821 1667.4033997509894 381.7766875992859Q1672.515340152789 385.26094548508956 1673.2528837928496 391.84797316701054ZM1805.8327112285795 372.44294567162177L1805.8327112285795 372.44294567162177Q1808.0199096094486 374.2740885021172 1809.0372111819463 379.58948921841636Q1810.029080215131 384.90488993471547 1809.8510524399442 391.0341319090126Q1809.673024664757 397.1633738833097 1808.0199096094486 402.020988891985Q1806.3667945541404 406.87860390066027 1803.2640247580232 407.794175315908L1803.2640247580232 407.794175315908Q1801.9923977924016 408.1502308662821 1798.050354198974 408.786044349093Q1794.108310605546 409.4218578319039 1790.8020804949294 410.3374292471516L1790.8020804949294 410.3374292471516Q1787.6993106988123 411.2530006623993 1782.5619377577002 413.46563158258124Q1777.4499973559007 415.65282996345076 1773.7877116949096 419.87463148931516L1773.7877116949096 419.87463148931516Q1770.8629696739797 423.3588893751189 1769.0318268434842 427.097472654047Q1767.200684012989 430.86148847228753 1766.9972236984893 436.71097251414784L1766.9972236984893 436.71097251414784Q1766.8191959233025 439.1016312095169 1766.8191959233025 445.58692873418806Q1766.8191959233025 452.0976587981717 1766.8191959233025 460.6175594678378Q1766.8191959233025 469.1374601375039 1766.9209260805521 477.3776028747332Q1766.9972236984893 485.61774561196256 1766.9972236984893 491.46722965382287Q1766.9972236984893 497.3167136956832 1766.9972236984893 498.43574542543035L1766.9972236984893 498.43574542543035Q1766.8191959233025 503.92917391691657 1768.1162554282366 507.7694873530944Q1769.3878823938583 511.60980078927224 1770.8629696739797 512.3473444293329L1770.8629696739797 512.3473444293329Q1766.285112597741 515.8316023151367 1761.7835531394396 518.1968284711932Q1757.3074262204511 520.5874871665621 1749.067283483222 521.681086356997L1749.067283483222 521.681086356997Q1745.9390811477922 522.037141907371 1742.0987677116143 519.9516736837513Q1738.2584542754364 517.8407729208191 1735.4100098724437 513.3392134625178Q1732.5869980087634 508.86308654352916 1732.4089702335762 502.2760588616082L1732.4089702335762 502.2760588616082Q1732.4089702335762 495.6890311796872 1732.3072400763265 485.3379876795257Q1732.2055099190763 474.98694417936423 1732.3072400763265 462.8047578487073Q1732.4089702335762 450.6225715180504 1732.2055099190763 438.3640875694562L1732.2055099190763 438.3640875694562Q1732.0274821438895 433.04868685315705 1730.6541250210182 428.2928020017315Q1729.2807678981465 423.53691715030595 1726.1779981020293 420.0526592645022L1726.1779981020293 420.0526592645022Q1723.0497957665996 416.3903736035114 1717.9378553648 413.99971490814244Q1712.800482423688 411.6344887520859 1705.1198555513322 410.8969451120252L1705.1198555513322 410.8969451120252Q1703.1106849456498 410.71891733683816 1699.626427059846 409.80334592159045Q1696.1421691740422 408.88777450634274 1694.8705422084204 407.972203091095L1694.8705422084204 407.972203091095Q1692.8359390634257 406.49711581097375 1691.5643120978036 402.3770444423591Q1690.292685132182 398.25697307374446 1689.5551414921213 393.2213302898821Q1688.8175978520605 388.18568750601975 1688.5378399196238 383.25177487940715Q1688.258081987187 378.2924297134821 1688.4615423016864 375.1896599173649L1688.4615423016864 375.1896599173649Q1689.1736534024349 375.36768769255195 1692.5816136703013 375.74917578223847Q1695.964141398855 376.10523133261256 1700.7200262502809 376.3849892650494Q1705.4759111017063 376.6647471974862 1710.053768177945 376.8427749726732L1710.053768177945 376.8427749726732Q1713.3599982885614 377.02080274786033 1718.9297243979852 377.1988305230473Q1724.524883046721 377.3768582982344 1730.9338829534547 377.5803186127339Q1737.3428828601889 377.75834638792094 1743.0143391268618 377.83464400585825Q1748.6857953935353 377.936374163108 1752.348081054526 377.936374163108L1752.348081054526 377.936374163108Q1757.3074262204511 377.75834638792094 1763.894453902372 377.5803186127339Q1770.481481584293 377.3768582982344 1776.6107235585903 377.12253290511Q1782.7653980721996 376.8427749726732 1786.4276837331906 376.46128688298666L1786.4276837331906 376.46128688298666Q1790.0899693941813 376.10523133261256 1794.210040762796 375.4694178498017Q1798.3301121314105 374.8336043669908 1801.5346120847773 373.9943305696804Q1804.7391120381446 373.18048931168244 1805.8327112285795 372.44294567162177Z " fill="#292826" transform="matrix(0.4834579413991358,0,0,0.4834579413991358,0,83.68016259525744)"/></g></svg>