<svg xmlns="http://www.w3.org/2000/svg" version="1.1" xmlns:xlink="http://www.w3.org/1999/xlink" xmlns:svgjs="http://svgjs.dev/svgjs" width="100%" height="100%" viewBox="0 0 1000 600"><rect width="1000" height="600" x="0" y="0" fill="#e4cac5"/><g><circle r="166.66666666666666" cx="319.73192850748694" cy="341.95421061980676" fill="#292826" transform="matrix(0.8166447098170334,0,0,0.8166447098170334,0,20.744888316833297)"/><path d="M381.8500567697773 330.6476189158572L381.8500567697773 330.6476189158572Q383.8688933129831 332.666455459063 384.89108903106194 336.6274638666186Q385.88772985618886 340.58847227417425 385.1721928535336 345.36723725619294L385.1721928535336 345.36723725619294Q384.6099852085903 349.40491034260447 382.41226441472065 353.6470225726318Q380.1889887278992 357.8891348026591 375.76799224720804 361.0068317427997L375.76799224720804 361.0068317427997Q372.29252680573984 363.408991680285 370.6314587638617 368.826628986103Q368.97039072198356 374.244266291921 368.4081830770402 379.7641231695469L368.4081830770402 379.7641231695469Q367.6926460743849 386.02507194277996 365.18826656509174 392.64378921734067Q362.70944194875045 399.28806138485334 357.5729084654041 404.4245948681997L357.5729084654041 404.4245948681997Q353.5096804860406 409.20335985021836 345.8687674934011 413.164368257774Q338.25340939371347 417.12537666532967 325.1693042023039 416.94649241466584L325.1693042023039 416.94649241466584Q317.80949503213606 416.767608164002 307.97086124562696 414.3654482265167Q298.13222745911787 411.9632882890313 288.1147094219449 406.54565098321336Q278.07163649182 401.1280136773953 269.79185117538117 391.9282522146855Q261.5120658589423 382.72849075197564 257.0910693782512 369.1077328085747Q252.69562779051205 355.48697486517375 254.53558008305401 336.7296834384265L254.53558008305401 336.7296834384265Q256.1710932319802 318.86681326499826 263.4542377232922 305.80826296654067Q270.71182732165215 292.74971266808313 281.5726568262402 284.29104310098046Q292.43348633082815 275.8068186409258 304.9298289843423 271.48804173204263Q317.4517265308085 267.1692648231594 329.76918493365883 266.9903805724956L329.76918493365883 266.9903805724956Q340.63001443824686 266.607057178216 348.73091550402194 270.2869617632999Q356.83181656979696 273.96686634838386 361.71280112362354 279.7678270484814Q366.5682307844982 285.56878774857904 368.33151839818424 292.1108403442838Q370.0692511189183 298.62733804703663 368.22929882637635 303.9683106739987L368.22929882637635 303.9683106739987Q366.772669928114 308.5681914053536 364.0894061681569 311.5070040948304Q361.43169730115187 314.4458167843071 358.28844546805936 315.5702320741939L358.28844546805936 315.5702320741939Q354.4296566323116 317.02686097245623 350.3919835459001 316.0302201473294Q346.3287555665366 315.0080244292505 343.3899428770598 311.5070040948304L343.3899428770598 311.5070040948304Q346.5331947101523 309.130399050297 345.33211474140967 306.26825103967616Q344.13103477266696 303.4061030290553 339.5311540413121 301.4894860576575Q334.9312733099572 299.5473141933076 327.7503483904531 300.109521838251L327.7503483904531 300.109521838251Q322.2304915128272 300.4672903395786 316.07176231140204 303.2272187783915Q309.9130331099768 305.9871472172045 304.4698409112068 310.97035134283897Q299.05220360538885 315.9280005755215 295.5511832709687 323.1089254950256Q292.05016293654853 330.2898504145296 291.692394435221 339.48961187723944L291.692394435221 339.48961187723944Q291.13018679027755 352.1648387814174 293.9923348008984 360.0868555965287Q296.85448281151923 368.0088724116399 301.633247793538 372.04654549805144Q306.4120127755567 376.084218584463 311.9318696531826 377.56640237567734Q317.4517265308085 379.0485861668917 322.61381490710676 379.0485861668917L322.61381490710676 379.0485861668917Q327.0092564948459 379.0485861668917 329.8714045054668 376.28865772807876Q332.73355251608757 373.5287292892658 332.1713448711442 369.6443855605661Q331.6091372262008 365.78559672481833 325.55262759658353 362.2845763903983L325.55262759658353 362.2845763903983Q319.8538864682938 359.1668794502577 318.19281842641567 356.22806676078096Q316.53175038453753 353.2892540713042 315.4328899876027 350.32488648887545L315.4328899876027 350.32488648887545Q313.59293769506075 345.54612150685676 312.28963815451016 340.02626462923087Q311.01189350691163 334.50640775160497 311.1907777575754 330.6476189158572L311.1907777575754 330.6476189158572Q312.6729615487898 331.2098265608006 318.72947117840704 332.3853516365913Q324.8115357009764 333.586431605334 332.8102171949435 334.50640775160497Q340.8088986889107 335.42638389787595 347.9898236084147 335.6052681485397L347.9898236084147 335.6052681485397Q355.52851702924636 335.6052681485397 362.5305576980867 335.14528007540423Q369.5325983669269 334.68529200226874 374.7713514220811 333.586431605334Q380.01010447723536 332.4875712083992 381.8500567697773 330.6476189158572Z " fill="#fc0404" transform="matrix(0.8166447098170334,0,0,0.8166447098170334,0,20.744888316833297)"/><path d="M697.5893450998554 330.6476189158572L697.5893450998554 330.6476189158572Q699.6081816430611 332.666455459063 700.6303773611401 336.6274638666186Q701.6270181862669 340.58847227417425 700.9114811836117 345.36723725619294L700.9114811836117 345.36723725619294Q700.3492735386684 349.40491034260447 698.1515527447988 353.6470225726318Q695.9282770579772 357.8891348026591 691.5072805772861 361.0068317427997L691.5072805772861 361.0068317427997Q688.031815135818 363.408991680285 686.3707470939398 368.826628986103Q684.7096790520617 374.244266291921 684.1474714071182 379.7641231695469L684.1474714071182 379.7641231695469Q683.431934404463 386.02507194277996 680.9275548951698 392.64378921734067Q678.4487302788285 399.28806138485334 673.3121967954822 404.4245948681997L673.3121967954822 404.4245948681997Q669.2489688161187 409.20335985021836 661.6080558234792 413.164368257774Q653.9926977237916 417.12537666532967 640.908592532382 416.94649241466584L640.908592532382 416.94649241466584Q633.5487833622142 416.767608164002 623.710149575705 414.3654482265167Q613.8715157891959 411.9632882890313 603.853997752023 406.54565098321336Q593.8109248218981 401.1280136773953 585.5311395054592 391.9282522146855Q577.2513541890204 382.72849075197564 572.8303577083293 369.1077328085747Q568.4349161205902 355.48697486517375 570.2748684131321 336.7296834384265L570.2748684131321 336.7296834384265Q571.9103815620583 318.86681326499826 579.1935260533703 305.80826296654067Q586.4511156517302 292.74971266808313 597.3119451563182 284.29104310098046Q608.1727746609063 275.8068186409258 620.6691173144204 271.48804173204263Q633.1910148608865 267.1692648231594 645.508473263737 266.9903805724956L645.508473263737 266.9903805724956Q656.3693027683249 266.607057178216 664.4702038341 270.2869617632999Q672.5711048998751 273.96686634838386 677.4520894537017 279.7678270484814Q682.3075191145763 285.56878774857904 684.0708067282624 292.1108403442838Q685.8085394489964 298.62733804703663 683.9685871564544 303.9683106739987L683.9685871564544 303.9683106739987Q682.5119582581921 308.5681914053536 679.828694498235 311.5070040948304Q677.17098563123 314.4458167843071 674.0277337981374 315.5702320741939L674.0277337981374 315.5702320741939Q670.1689449623897 317.02686097245623 666.1312718759782 316.0302201473294Q662.0680438966147 315.0080244292505 659.1292312071379 311.5070040948304L659.1292312071379 311.5070040948304Q662.2724830402304 309.130399050297 661.0714030714878 306.26825103967616Q659.870323102745 303.4061030290553 655.2704423713901 301.4894860576575Q650.6705616400352 299.5473141933076 643.4896367205312 300.109521838251L643.4896367205312 300.109521838251Q637.9697798429053 300.4672903395786 631.81105064148 303.2272187783915Q625.652321440055 305.9871472172045 620.2091292412849 310.97035134283897Q614.7914919354669 315.9280005755215 611.2904716010468 323.1089254950256Q607.7894512666267 330.2898504145296 607.431682765299 339.48961187723944L607.431682765299 339.48961187723944Q606.8694751203557 352.1648387814174 609.7316231309765 360.0868555965287Q612.5937711415974 368.0088724116399 617.3725361236161 372.04654549805144Q622.1513011056347 376.084218584463 627.6711579832606 377.56640237567734Q633.1910148608865 379.0485861668917 638.3531032371849 379.0485861668917L638.3531032371849 379.0485861668917Q642.748544824924 379.0485861668917 645.6106928355448 376.28865772807876Q648.4728408461657 373.5287292892658 647.9106332012223 369.6443855605661Q647.3484255562789 365.78559672481833 641.2919159266617 362.2845763903983L641.2919159266617 362.2845763903983Q635.5931747983719 359.1668794502577 633.9321067564938 356.22806676078096Q632.2710387146155 353.2892540713042 631.1721783176808 350.32488648887545L631.1721783176808 350.32488648887545Q629.3322260251389 345.54612150685676 628.0289264845883 340.02626462923087Q626.7511818369896 334.50640775160497 626.9300660876535 330.6476189158572L626.9300660876535 330.6476189158572Q628.4122498788679 331.2098265608006 634.4687595084852 332.3853516365913Q640.5508240310544 333.586431605334 648.5495055250216 334.50640775160497Q656.5481870189888 335.42638389787595 663.7291119384929 335.6052681485397L663.7291119384929 335.6052681485397Q671.2678053593245 335.6052681485397 678.2698460281647 335.14528007540423Q685.271886697005 334.68529200226874 690.5106397521592 333.586431605334Q695.7493928073135 332.4875712083992 697.5893450998554 330.6476189158572ZM817.365128365747 381.0674227100975L817.365128365747 381.0674227100975Q817.5440126164108 385.10509579650903 818.0040006895463 391.0082760684145Q818.4639887626818 396.885901447368 820.3039410552237 402.40575832499394Q822.1438933477657 407.92561520261984 826.2071213271292 411.2477512863761L826.2071213271292 411.2477512863761Q821.6072405957743 414.3654482265167 816.8284756137556 415.7454124459232Q812.0241557387849 417.12537666532967 807.42427500743 416.38428476972246L807.42427500743 416.38428476972246Q806.1465303598314 416.02651626839486 804.664346568617 415.56652819525937Q803.2077176703547 415.1065401221239 800.6266734822055 414.3654482265167L800.6266734822055 414.3654482265167Q796.3845612521782 413.0877035789181 790.6858201238884 413.8032405815733Q784.9870789955988 414.5443324771805 778.8283497941735 415.7454124459232Q772.6696205927484 416.94649241466584 766.7664403208429 416.94649241466584L766.7664403208429 416.94649241466584Q757.2089103568055 416.94649241466584 747.6258254998161 413.5476916520536Q738.0682955357787 410.12333599648935 730.3507178642832 402.96796596993727Q722.6075852998357 395.78704105043323 718.5699122134242 384.74732729518144Q714.5066842340607 373.70761353992964 716.1677522759388 358.2469033039867L716.1677522759388 358.2469033039867Q717.2666126728736 347.5649580500625 722.2498167985082 338.6463004098244Q727.2074660311906 329.7276427695862 734.4906105225026 323.18559017388145Q741.7482001208626 316.6690924711287 749.9257658654935 313.06585256490064Q758.1288865030765 309.4881675516246 765.8464641745719 309.6670518022884L765.8464641745719 309.6670518022884Q771.7496444464774 309.8459360529522 774.9695609584259 310.050375196568Q778.1894774703743 310.2292594472318 783.3260109537206 310.97035134283897L783.3260109537206 310.97035134283897Q786.4692627868131 311.32811984416657 791.2480277688319 310.050375196568Q796.0267927508506 308.74707565601744 800.9077773046771 307.18822718594714Q805.7887618585038 305.6293787158769 809.2642272999719 305.6293787158769L809.2642272999719 305.6293787158769Q814.605199926934 305.45049446521307 816.8284756137556 305.91048253834856Q819.0261964076252 306.37047061148405 820.5083801988395 306.72823911281165L820.5083801988395 306.72823911281165Q819.3839649089527 310.050375196568 818.6684279062976 316.6690924711287Q817.9273360106904 323.28780974568934 817.6462321882187 331.6698146339361Q817.365128365747 340.02626462923087 817.1862441150832 349.04714184127687Q817.0073598644194 358.0680190533229 817.0840245432754 366.3478043697618Q817.1862441150832 374.6275896862006 817.365128365747 381.0674227100975ZM748.1880331447595 364.12452868294025L748.1880331447595 364.12452868294025Q748.545801646087 373.32429014565 751.5868339073717 378.38415895014043Q754.6278661686564 383.44402775463084 758.9466430775396 385.4884191907886Q763.2654199864228 387.5072557339944 767.3286479657862 387.5072557339944L767.3286479657862 387.5072557339944Q775.4295490315614 387.68613998465815 779.2883378673091 381.2463069607613Q783.1471267030569 374.8064739368644 782.968242452393 363.408991680285L782.968242452393 363.408991680285Q782.968242452393 360.2657398471925 782.3293701285937 356.04918251011713Q781.6649429118424 351.8070702800898 780.1060944417721 347.7693971936783Q778.547245971702 343.7061692143148 775.8895371046968 340.94624077550185Q773.2062733447398 338.1863123366889 768.9897160076645 338.1863123366889L768.9897160076645 338.1863123366889Q760.5054915476098 338.1863123366889 754.1678780955209 344.44726110992195Q747.8302646434319 350.70820988315506 748.1880331447595 364.12452868294025ZM913.6048552228725 312.24809599043755L913.6048552228725 312.24809599043755Q915.4448075154145 314.0880482829795 916.4414483405415 318.96903283680615Q917.4636440586204 323.85001739063273 917.0036559854849 329.62542319777833Q916.5436679123494 335.42638389787595 914.243727546672 340.12848420103876Q911.9437871809945 344.80502961124955 907.3439064496396 346.46609765312775L907.3439064496396 346.46609765312775Q900.1629815301354 349.04714184127687 896.8664003393311 355.6658591158376Q893.5442642555748 362.2845763903983 892.9820566106315 372.40431399937904L892.9820566106315 372.40431399937904L892.9820566106315 388.04390848598575Q893.365380004911 391.0082760684145 895.4864361199246 392.84822836095645Q897.5819373419864 394.6881806534984 899.7029934569999 395.4037176561536Q901.8240495720137 396.14480955176083 901.8240495720137 396.14480955176083L901.8240495720137 396.14480955176083Q901.8240495720137 396.14480955176083 901.1851772482144 398.72585373991Q900.546304924415 401.30689792805913 898.8852368825369 404.80791826247923Q897.2241688406588 408.2833837039474 894.1064719005182 411.5033002158958Q890.9632200674256 414.72321672784426 886.0055708347431 416.02651626839486L886.0055708347431 416.02651626839486Q883.424526646594 416.5631690203862 879.1057497377108 416.3076200908665Q874.7869728288275 416.02651626839486 870.3659763481364 414.5443324771805Q865.9449798674453 413.0877035789181 863.0061671779686 410.50665939076896L863.0061671779686 410.50665939076896Q861.3450991360904 409.0244755995546 860.2462387391555 407.3634075576764Q859.1473783422208 405.7278944087502 858.6873902690853 402.40575832499394Q858.2274021959498 399.08362224123755 858.2274021959498 393.0271126116203L858.2274021959498 393.0271126116203L858.2274021959498 373.32429014565Q858.0229630523341 362.66789978467784 853.6275214645949 355.58919443698164Q849.2065249839038 348.4849341963335 842.0256000643998 343.3484007129872L842.0256000643998 343.3484007129872Q838.7034639806434 340.94624077550185 837.3234997612369 335.52860346968384Q835.9435355418306 330.0854112709138 835.5857670405029 324.02890164129656Q835.2279985391752 317.9468371187273 835.4068827898391 313.7302797816519L835.4068827898391 313.7302797816519Q836.32685893611 313.90916403231574 840.3645320225215 314.4458167843071Q844.4277600018851 315.0080244292505 847.3665726913619 315.0080244292505L847.3665726913619 315.0080244292505Q853.2441980703153 314.8291401785867 855.4674737571369 310.4081436978956Q857.6651945510065 305.9871472172045 857.6651945510065 299.3684299426438L857.6651945510065 299.3684299426438L857.4863103003427 282.9877435604299Q859.1473783422208 282.8088593097661 863.0828318568246 282.52775548729437Q867.04384026438 282.2466516648227 871.8226052463988 282.6299750591023Q876.6269251213695 282.9877435604299 881.1245862809166 284.3677077798364Q885.6222474404636 285.74767199924287 888.8421639524121 288.6864846887196Q892.0620804643605 291.6508522711483 892.6242881093038 296.60850150383084L892.6242881093038 296.60850150383084Q892.6242881093038 297.1707091487742 892.7265076811117 297.9884657232373Q892.8031723599676 298.8062222977004 892.8031723599676 299.93063758758717L892.8031723599676 299.93063758758717L892.9820566106315 299.93063758758717Q892.9820566106315 302.30724263212056 893.6464838273827 305.6293787158769Q894.2853561511819 308.9259599066812 895.5631007987805 311.1492355935028L895.5631007987805 311.1492355935028Q896.8664003393311 312.98918788604476 899.626328778144 313.80694446050785Q902.386257216957 314.6502559279229 905.0439660839621 314.7269206067788Q907.7016749509671 314.8291401785867 909.0049744915177 314.4458167843071L909.0049744915177 314.4458167843071Q911.0238110347235 313.90916403231574 911.9437871809945 313.44917595918025Q912.8637633272655 312.98918788604476 913.6048552228725 312.24809599043755ZM1006.3435617455781 312.24809599043755L1006.3435617455781 312.24809599043755Q1008.1835140381202 314.0880482829795 1009.1801548632469 318.96903283680615Q1010.2023505813258 323.85001739063273 1009.7423625081904 329.62542319777833Q1009.2823744350547 335.42638389787595 1006.9824340693774 340.12848420103876Q1004.6824937037 344.80502961124955 1000.082612972345 346.46609765312775L1000.082612972345 346.46609765312775Q992.901688052841 349.04714184127687 989.5795519690847 355.6658591158376Q986.2829707782802 362.2845763903983 985.7207631333368 372.40431399937904L985.7207631333368 372.40431399937904L985.7207631333368 388.04390848598575Q986.1040865276165 391.0082760684145 988.1995877496781 392.84822836095645Q990.3206438646918 394.6881806534984 992.4416999797055 395.4037176561536Q994.5627560947192 396.14480955176083 994.5627560947192 396.14480955176083L994.5627560947192 396.14480955176083Q994.5627560947192 396.14480955176083 993.9238837709198 398.72585373991Q993.2594565541687 401.30689792805913 991.6239434052424 404.80791826247923Q989.9628753633642 408.2833837039474 986.8196235302718 411.5033002158958Q983.7019265901312 414.72321672784426 978.7442773574486 416.02651626839486L978.7442773574486 416.02651626839486Q976.1632331692995 416.5631690203862 971.8444562604162 416.3076200908665Q967.500124458581 416.02651626839486 963.1046828708419 414.5443324771805Q958.6836863901508 413.0877035789181 955.744873700674 410.50665939076896L955.744873700674 410.50665939076896Q954.0838056587959 409.0244755995546 952.9849452618611 407.3634075576764Q951.8605299719743 405.7278944087502 951.4005418988389 402.40575832499394Q950.9405538257033 399.08362224123755 950.9405538257033 393.0271126116203L950.9405538257033 393.0271126116203L950.9405538257033 373.32429014565Q950.7616695750395 362.66789978467784 946.3406730943484 355.58919443698164Q941.9452315066093 348.4849341963335 934.7643065871051 343.3484007129872L934.7643065871051 343.3484007129872Q931.442170503349 340.94624077550185 930.0622062839424 335.52860346968384Q928.6822420645359 330.0854112709138 928.3244735632084 324.02890164129656Q927.9411501689287 317.9468371187273 928.1455893125445 313.7302797816519L928.1455893125445 313.7302797816519Q929.0655654588155 313.90916403231574 933.1032385452271 314.4458167843071Q937.1409116316386 315.0080244292505 940.1052792140673 315.0080244292505L940.1052792140673 315.0080244292505Q945.9829045930209 314.8291401785867 948.1806253868905 310.4081436978956Q950.4039010737118 305.9871472172045 950.4039010737118 299.3684299426438L950.4039010737118 299.3684299426438L950.2250168230481 282.9877435604299Q951.8605299719743 282.8088593097661 955.8215383795299 282.52775548729437Q959.7825467870856 282.2466516648227 964.5613117691042 282.6299750591023Q969.3400767511231 282.9877435604299 973.863292803622 284.3677077798364Q978.360953963169 285.74767199924287 981.5808704751175 288.6864846887196Q984.800786987066 291.6508522711483 985.3629946320093 296.60850150383084L985.3629946320093 296.60850150383084Q985.3629946320093 297.1707091487742 985.4396593108653 297.9884657232373Q985.5418788826731 298.8062222977004 985.5418788826731 299.93063758758717L985.5418788826731 299.93063758758717L985.7207631333368 299.93063758758717Q985.7207631333368 302.30724263212056 986.3596354571362 305.6293787158769Q987.0240626738874 308.9259599066812 988.3018073214861 311.1492355935028L988.3018073214861 311.1492355935028Q989.5795519690847 312.98918788604476 992.3394804078977 313.80694446050785Q995.0994088467105 314.6502559279229 997.7826726066675 314.7269206067788Q1000.4403814736727 314.8291401785867 1001.7436810142232 314.4458167843071L1001.7436810142232 314.4458167843071Q1003.762517557429 313.90916403231574 1004.6824937037 313.44917595918025Q1005.6024698499709 312.98918788604476 1006.3435617455781 312.24809599043755ZM1045.1614441396232 304.8882868202697L1045.1614441396232 304.8882868202697Q1038.9004953663903 305.06717107093345 1034.0195108125636 301.3872664858496Q1029.1385262587369 297.7073619007656 1026.6597016423957 292.28972459494764Q1024.1808770260545 286.8465323961776 1024.7430846709976 281.8888831634951L1024.7430846709976 281.8888831634951Q1025.6630608172686 274.3501897426635 1031.5406861962224 271.2069379095709Q1037.4183115751757 268.08924096943036 1043.8581445990726 267.9103567187666L1043.8581445990726 267.9103567187666Q1053.0579060617824 267.527033324487 1058.219994438081 272.6891217007853Q1063.382082814379 277.8512100770836 1063.382082814379 284.4699273516443L1063.382082814379 284.4699273516443Q1063.382082814379 288.8909238323354 1061.4399109500291 293.4908045636903Q1059.4977390856793 298.0906852950452 1055.460065999268 301.31060180699365Q1051.4223929128561 304.5305183189421 1045.1614441396232 304.8882868202697ZM1064.6598274619778 395.78704105043323L1064.6598274619778 395.78704105043323Q1064.8387117126413 399.08362224123755 1066.7808835769913 401.383562606915Q1068.6975005483891 403.68350297259246 1071.457428987202 405.7278944087502L1071.457428987202 405.7278944087502Q1070.1796843396037 407.3634075576764 1068.1608477963978 409.20335985021836Q1066.1420112531919 411.0433121427603 1062.1810028456364 412.6277155057826Q1058.219994438081 414.1865639758529 1050.860185267913 415.1065401221239L1050.860185267913 415.1065401221239Q1048.4580253304275 415.2854243727877 1044.7781207453436 414.6465520489884Q1041.0982161602597 414.00767972518906 1037.5205311469836 410.96664746390445Q1033.9428461337075 407.92561520261984 1031.7195704468859 401.20467835625124Q1029.5218496530165 394.48374150988263 1029.879618154344 382.72849075197564L1029.879618154344 382.72849075197564Q1030.0585024050079 380.6840993158179 1029.981837726152 374.8064739368644Q1029.879618154344 368.9288485579109 1029.8029534754883 360.8279474921359Q1029.7007339036804 352.7270464263608 1029.5985143318726 344.08949260859436Q1029.5218496530165 335.42638389787595 1029.4196300812087 327.98991004885215Q1029.3429654023528 320.5278813068764 1029.2407458305447 315.8257810037136Q1029.1385262587369 311.1492355935028 1029.1385262587369 311.1492355935028L1029.1385262587369 311.1492355935028Q1030.799594300615 310.97035134283897 1034.7606027081706 310.6892475203673Q1038.7216111157263 310.4081436978956 1043.5003760977452 310.7659121992232Q1048.2791410797638 311.1492355935028 1052.8023571322628 312.52919981290927Q1057.30001829181 313.90916403231574 1060.5199348037581 316.84797672179246Q1063.7398513157068 319.78678941126924 1064.30205896065 324.7699935369037L1064.30205896065 324.7699935369037Q1065.2220351069209 331.746479312792 1065.0175959633052 343.4250653918431Q1064.8387117126413 355.12920636384615 1064.4809432113138 368.826628986103Q1064.0976198170342 382.52405160835985 1064.6598274619778 395.78704105043323Z " fill="#fc0404" transform="matrix(0.8166447098170334,0,0,0.8166447098170334,0,20.744888316833297)"/></g></svg>