<svg xmlns="http://www.w3.org/2000/svg" version="1.1" xmlns:xlink="http://www.w3.org/1999/xlink" xmlns:svgjs="http://svgjs.dev/svgjs" width="100%" height="100%" viewBox="0 0 1000 600"><rect width="1000" height="600" x="0" y="0" fill="#3fda44"/><g><rect width="333.3333333333333" height="333.3333333333333" rx="13.333333333333334" ry="13.333333333333334" y="254.7242611409475" fill="#f5f221" transform="matrix(0.537629656995954,0,0,0.537629656995954,0,73.44772800331074)" x="232.50199890136716"/><path d="M446.9816191444819 383.4009008058789L446.9816191444819 383.4009008058789Q444.75859108503147 390.19774521753186 440.15922268616856 393.3406469567549Q435.55985428730565 396.4579966493175 430.6027572351978 395.81919548280877Q425.6201081364297 395.1803943163 422.1450297906222 390.938754570682L422.1450297906222 390.938754570682Q425.2623794831848 388.5624142312695 424.0614332901484 385.70058500531036Q422.86048709711196 382.83875577935123 418.26111869824905 380.92235227982496Q413.6617502993861 378.98039673363843 406.50717723448827 379.5425417601661L406.50717723448827 379.5425417601661Q399.1481877963076 379.900270413411 391.68699017148555 384.3207744856515Q384.22579254666346 388.741278557892 379.26869549455563 397.0201416758452Q374.31159844244786 405.2990047937984 373.74945341592013 417.61509128408693L373.74945341592013 417.61509128408693Q373.18730838939246 430.3144584742806 376.3302101286155 438.235592938989Q379.4475598211781 446.131175357037 384.14913640668243 450.2706069160136Q388.82516094552636 454.41003847499024 393.6289457176721 456.17312969455435Q398.4071784431574 457.9106688674581 401.34566380909763 458.4728138939858L401.34566380909763 458.4728138939858Q405.20402285481043 459.1882712004756 410.2633280935596 459.4693437137395Q415.32263333230884 459.7504162270033 420.4841467576994 458.8305425472307Q425.6201081364297 457.9106688674581 429.29960285552005 455.7131928546681L429.29960285552005 455.7131928546681Q432.62136892136544 453.66902912184014 437.57846597347327 450.2706069160136Q442.5611150722414 446.8721847101871 447.1604834711043 442.63054496456914Q451.75985186996724 438.4144572656114 453.95732788275734 433.993953193371L453.95732788275734 433.993953193371Q460.21757931454295 438.235592938989 461.7762541608243 445.95231103041453Q463.3349290071056 453.66902912184014 460.39644364116543 462.51003726632104Q457.4579582752252 471.351045410802 450.20117702368594 479.16997168886894Q442.91884372548634 486.9888979669359 431.343766588348 491.8437868324023Q419.7431374045493 496.72422774452906 403.9264205217929 496.36649909128414L403.9264205217929 496.36649909128414Q396.5674310836123 496.18763476466177 387.0876217726226 493.6068780519664Q377.60781246163293 491.0261213392711 368.0513470106622 485.4046710739942Q358.46932951303114 479.8087728553777 350.6504032349642 470.5078278710105Q342.83147695689723 461.2324349333036 338.794253584562 447.43432973671486Q334.75703021222677 433.6362245401261 336.59677757177195 414.8554702447692L336.59677757177195 414.8554702447692Q338.2321085580343 397.0201416758452 345.51444185623393 384.14191015902907Q352.7712231077732 371.2636786422129 363.3497704251579 363.0614716642407Q373.9283177425426 354.8848167329288 385.8100194396051 350.74538517395223Q397.6661690900073 346.6059536149756 408.5257889206559 346.42708928835316L408.5257889206559 346.42708928835316Q419.3854087513044 346.04380858844786 427.38319935599384 349.72330330753823Q435.3809899606832 353.40279802662855 440.33808701279105 359.2031126185279Q445.3207361115592 365.0034272104273 447.058275284463 371.5447511554767Q448.8213665040271 378.06052305386584 446.9816191444819 383.4009008058789Z " fill="#214bf5" transform="matrix(0.537629656995954,0,0,0.537629656995954,0,73.44772800331074)"/><path d="M757.4368337442896 386.1427330327714L757.4368337442896 386.1427330327714Q755.2677500764352 392.7746440172465 750.7799907636323 395.8412795476617Q746.2922314508295 398.8829830818947 741.4554241914756 398.25968317733873Q736.5936849359392 397.6363832727828 733.202933455155 393.4976719065314L733.202933455155 393.4976719065314Q736.2446369893879 391.17899626158334 735.0728331688227 388.38661268917275Q733.9010293482576 385.59422911676216 729.413270035455 383.7243294030943Q724.9255107226521 381.8294976932443 717.9445517916257 382.37800160925354L717.9445517916257 382.37800160925354Q710.7641368911413 382.72704955580485 703.483994005928 387.0402848953319Q696.2038511207147 391.353520234859 691.3670438613607 399.4314869979039Q686.5302366020067 407.50945376094876 685.9817326859974 419.52667592078717L685.9817326859974 419.52667592078717Q685.4332287699882 431.91787802335915 688.4998643004034 439.64679683985275Q691.5415678346363 447.3507836601641 696.129055132168 451.3897670416866Q700.6916104335174 455.428750423209 705.3788257157781 457.1490581597834Q710.0411090018564 458.84443390017555 712.9082885628137 459.3929378161847L712.9082885628137 459.3929378161847Q716.6730199863316 460.0910337092874 721.6095552304147 460.365285667292Q726.5460904744976 460.6395376252966 731.5823537033095 459.7419857627361Q736.5936849359392 458.84443390017555 740.1838923861814 456.7002822285031L740.1838923861814 456.7002822285031Q743.4250518898723 454.70572253392413 748.2618591492263 451.3897670416866Q753.1235984047627 448.073811549449 757.6113577175653 443.9351001831976Q762.0991170303681 439.8213208131284 764.2432687020406 435.50808547360134L764.2432687020406 435.50808547360134Q770.3516077666887 439.64679683985275 771.8724595338052 447.17625968688844Q773.3933113009217 454.70572253392413 770.5261317399644 463.33219321297827Q767.6589521790071 471.9586638920324 760.5782652632516 479.587854723797Q753.472646351314 487.21704555556164 742.1784520807604 491.95412483018674Q730.8593258140246 496.71613610099405 715.4264201772197 496.36708815444274L715.4264201772197 496.36708815444274Q708.2460052767354 496.1925641811671 698.9962346931253 493.6744325667611Q689.7464641095153 491.15630095235514 680.4218975373584 485.67126179226295Q671.0723989690194 480.2111546283529 663.4432081372548 471.13590801801854Q655.8140173054902 462.08559340386637 651.8747619086968 448.6223154654582Q647.9355065119032 435.15903752705003 649.7306102370243 416.83402033310557L649.7306102370243 416.83402033310557Q651.3262579926875 399.4314869979039 658.4318769046251 386.86576092205627Q665.5125638203805 374.30003484620863 675.8344102398268 366.29686407171044Q686.156256659273 358.31862529339446 697.7496348840135 354.27964191187203Q709.3180811125716 350.2406585303496 719.9141794900225 350.0661345570739L719.9141794900225 350.0661345570739Q730.5102778674733 349.6921546143403 738.3139926725136 353.2823620645825Q746.1177074775538 356.8725695148247 750.954514736908 362.5321326481926Q755.8162539924443 368.1916957815605 757.5116297328365 374.5742868042132Q759.2319374694108 380.9319458306838 757.4368337442896 386.1427330327714ZM897.6294482770105 460.0910337092874L897.6294482770105 460.0910337092874Q899.7735999486828 465.301820911375 903.7377873416586 470.0638321821823Q907.6770427384521 474.82584345298966 910.5442222994094 477.14451909793775L910.5442222994094 477.14451909793775Q906.2309869598822 486.1200377235432 899.9481239219584 490.2587490897946L899.9481239219584 490.2587490897946Q894.762268716053 493.6744325667611 888.8284536246805 494.1980044865881L888.8284536246805 494.1980044865881Q885.5872941209897 494.5719844293217 881.4735147509206 493.6744325667611Q877.3348033846693 492.7768807042006 872.9467720565955 488.56337334940247Q868.5338087323395 484.3249339984221 864.2455053889945 475.00036742626537L864.2455053889945 475.00036742626537Q862.9739735837005 471.9586638920324 858.6607382441733 470.68713208673825Q854.3724349008286 469.4405322776264 849.5106956452922 469.1662803196218Q844.6738883859383 468.8920283616172 841.6072528555231 468.8920283616172L841.6072528555231 468.8920283616172Q838.5655493212902 468.8920283616172 834.1775179932164 469.06655233489283Q829.7645546689604 469.26600830435075 826.174347218718 470.5126081134626Q822.5841397684759 471.7592079225745 821.8611118791911 475.00036742626537L821.8611118791911 475.00036742626537Q821.1630159860885 477.8675469872227 821.6865879059154 480.93418251763785Q822.2350918219246 483.9758860518708 824.0301955470458 484.8734379144313L824.0301955470458 484.8734379144313Q820.9635600166306 487.7406174753886 818.0215844671264 489.9097011432433Q815.0546769214403 492.0538528149157 811.9880413910251 493.30045262402757L811.9880413910251 493.30045262402757Q808.2233099675071 494.921032375873 804.1843265859846 494.921032375873Q800.1453432044624 494.921032375873 795.1340119718326 493.1259286507519L795.1340119718326 493.1259286507519Q792.7904043307022 492.2283767881913 790.2722727162962 489.9097011432433Q787.7541411018902 487.56609350211295 786.8565892393298 483.42738213586154Q785.9590373767693 479.3136027657924 788.3026450178996 473.0307397278686L788.3026450178996 473.0307397278686Q788.4771689911753 472.48223581185937 790.0977487430206 467.27144860977177Q791.7183284948661 462.08559340386637 794.3112560978187 453.5588507095412Q796.9291156969538 445.032108015216 800.0705472159156 434.6105336110408Q803.2119787348776 424.1889592068656 806.527934227115 413.16901689431666Q809.8438897193527 402.1241425855855 812.9853212383144 391.87709215468595Q816.1267527572764 381.65497371996867 818.6448843716825 373.40248298364804Q821.1630159860885 365.14999224732753 822.5841397684759 360.28825299179124Q824.0301955470458 355.4514457324372 824.0301955470458 355.4514457324372L824.0301955470458 355.4514457324372Q825.6507752988911 354.5538938698767 830.0388066269649 353.20756607603585Q834.4268379550386 351.861238282195 839.4631011838507 351.68671430891936L839.4631011838507 351.68671430891936Q845.0229363324896 351.3127343661858 850.3334515193061 353.10783809130686Q855.6190347099404 354.902941816428 858.4862142708977 360.28825299179124L858.4862142708977 360.28825299179124Q859.7577460761919 362.4573366596459 862.2509456944157 368.5407437281118Q864.7690773088215 374.64908279275994 868.184760785788 383.2755534718141Q871.6004442627546 391.87709215468595 875.3651756862724 401.67536665430526Q879.1299071097902 411.4487091577423 882.8198425447614 421.04752768790365Q886.4848459835504 430.6712782142473 889.5514815139655 438.9237689505679Q892.5931850481985 447.17625968688844 894.762268716053 452.83582282025634Q896.9064203877255 458.4953859536242 897.6294482770105 460.0910337092874ZM841.083680935696 436.9541412521711L841.083680935696 436.9541412521711Q845.7459642217744 436.5801613094376 846.5437880996061 434.2614856644895Q847.36654397362 431.91787802335915 847.5410679468956 428.87617448912624L847.5410679468956 428.87617448912624Q847.5410679468956 426.8816147945472 846.9177680423396 424.0144352335899Q846.2944681377836 421.14725567263264 845.1226643172184 418.9033760162313Q843.9508604966533 416.6594963598299 842.1557567715323 416.6594963598299L842.1557567715323 416.6594963598299Q839.6376251571263 416.6594963598299 836.67071761144 420.1499758253431Q833.728742061936 423.6653872870386 833.3547621192025 427.2555947372808L833.3547621192025 427.2555947372808Q832.8311901993756 430.6712782142473 833.9780620237583 433.88750572175593Q835.1498658443235 437.12866522544675 841.083680935696 436.9541412521711ZM1014.8347623297083 349.343106667789L1014.8347623297083 349.343106667789Q1017.003845997563 351.1382103929101 1017.9761938486703 356.34899759499774Q1018.9734736959596 361.55978479708534 1018.7989497226839 367.56839587700455Q1018.6244257494083 373.57700695692375 1017.003845997563 378.33901822773106Q1015.3832662457174 383.1010294985384 1012.3415627114845 383.99858136109896L1012.3415627114845 383.99858136109896Q1011.0700309061905 384.34762930765027 1007.2055714979437 384.9709292122062Q1003.366044085879 385.59422911676216 1000.1248845821882 386.4917809793227L1000.1248845821882 386.4917809793227Q997.0831810479552 387.38933284188323 992.0469178191432 389.5584165097379Q987.0106545903315 391.7025681814103 983.4204471400891 395.8412795476617L983.4204471400891 395.8412795476617Q980.5532675791318 399.25696302462825 978.7581638540108 402.9219664634171Q976.9630601288897 406.6119018983882 976.788536155614 412.34626102030285L976.788536155614 412.34626102030285Q976.6140121823383 414.68986866143314 976.6140121823383 421.04752768790365Q976.6140121823383 427.4301187105564 976.6140121823383 435.782337431606Q976.6140121823383 444.1345561526555 976.6888081708852 452.2125229157004Q976.788536155614 460.2904896787453 976.788536155614 466.0248488006599Q976.788536155614 471.7592079225745 976.788536155614 472.8562157545929L976.788536155614 472.8562157545929Q976.6140121823383 478.2415269299562 977.8606119914504 482.00625835347404Q979.1321437967443 485.7709897769919 980.5532675791318 486.49401766627676L980.5532675791318 486.49401766627676Q976.0655082663292 489.9097011432433 971.6774769382554 492.2283767881913Q967.2645136139994 494.5719844293217 959.1865468509544 495.64406026515786L959.1865468509544 495.64406026515786Q956.1448433167214 495.9931082117092 952.3801118932037 493.9486845247657Q948.6153804696859 491.87932884164 945.8229968972752 487.466365517384Q943.0306133248647 483.0783341893102 942.856089351589 476.6209471781108L942.856089351589 476.6209471781108Q942.856089351589 470.1635601669113 942.7812933630422 460.01623772074066Q942.6815653783134 449.8689152745701 942.7812933630422 437.92648910327836Q942.856089351589 425.98406293198667 942.6815653783134 413.96684077214826L942.6815653783134 413.96684077214826Q942.5070414050377 408.75605357006066 941.1607136111969 404.0937702839823Q939.8143858173561 399.4314869979039 936.7477502869409 396.01580352093737L936.7477502869409 396.01580352093737Q933.706046752708 392.4255960706952 928.669783523896 390.0819884295649Q923.6584522912661 387.7633127846168 916.1040574480484 387.0402848953319L916.1040574480484 387.0402848953319Q914.1344297496515 386.86576092205627 910.718746272685 385.96820905949573Q907.3279947919008 385.07065719693514 906.0564629866066 384.1731053343746L906.0564629866066 384.1731053343746Q904.08683528821 382.72704955580485 902.8402354790979 378.6880661742824Q901.568703673804 374.64908279275994 900.8456757845189 369.712547548677Q900.1475798914163 364.77601230459396 899.8733279334118 359.9392050452399Q899.5990759754071 355.07746578970364 899.7735999486828 352.0357622554707L899.7735999486828 352.0357622554707Q900.4966278379678 352.2102862287463 903.8125833302053 352.5842661714799Q907.1285388224429 352.9333141180312 911.8157541047034 353.20756607603585Q916.4780373907819 353.48181803404043 920.9657967035845 353.6563420073161L920.9657967035845 353.6563420073161Q924.1820242110931 353.83086598059174 929.6670633711855 354.0053899538674Q935.1521025312776 354.17991392714305 941.4349655692014 354.379369896601Q947.7178286071254 354.5538938698767 953.2776637557641 354.62868985842334Q958.8374989044031 354.72841784315233 962.4277063546452 354.72841784315233L962.4277063546452 354.72841784315233Q967.2645136139994 354.5538938698767 973.746832621381 354.379369896601Q980.2042196325805 354.17991392714305 986.2128307124998 353.9305939653207Q992.2214417924189 353.6563420073161 995.8116492426612 353.2823620645825L995.8116492426612 353.2823620645825Q999.4018566929034 352.9333141180312 1003.4408400744259 352.31001421347526Q1007.4798234559483 351.68671430891936 1010.6212549749101 350.8639584349055Q1013.7626864938721 350.0661345570739 1014.8347623297083 349.343106667789ZM1141.389574950745 386.1427330327714L1141.389574950745 386.1427330327714Q1139.2454232790728 392.7746440172465 1134.7576639662698 395.8412795476617Q1130.2699046534672 398.8829830818947 1125.4330973941132 398.25968317733873Q1120.5713581385767 397.6363832727828 1117.1556746616106 393.4976719065314L1117.1556746616106 393.4976719065314Q1120.2223101920254 391.17899626158334 1119.0505063714604 388.38661268917275Q1117.8787025508955 385.59422911676216 1113.3909432380924 383.7243294030943Q1108.9031839252898 381.8294976932443 1101.897292998081 382.37800160925354L1101.897292998081 382.37800160925354Q1094.7168780975967 382.72704955580485 1087.4616672085658 387.0402848953319Q1080.1815243233523 391.353520234859 1075.3447170639984 399.4314869979039Q1070.4829778084622 407.50945376094876 1069.959405888635 419.52667592078717L1069.959405888635 419.52667592078717Q1069.4109019726257 431.91787802335915 1072.4775375030408 439.64679683985275Q1075.5192410372738 447.3507836601641 1080.1067283348057 451.3897670416866Q1084.669283636155 455.428750423209 1089.3315669222334 457.1490581597834Q1094.018782204494 458.84443390017555 1096.8859617654512 459.3929378161847L1096.8859617654512 459.3929378161847Q1100.6506931889694 460.0910337092874 1105.5872284330521 460.365285667292Q1110.5237636771353 460.6395376252966 1115.5600269059473 459.7419857627361Q1120.5713581385767 458.84443390017555 1124.161565588819 456.7002822285031L1124.161565588819 456.7002822285031Q1127.40272509251 454.70572253392413 1132.239532351864 451.3897670416866Q1137.1012716074001 448.073811549449 1141.5890309202032 443.9351001831976Q1146.0767902330058 439.8213208131284 1148.220941904678 435.50808547360134L1148.220941904678 435.50808547360134Q1154.3292809693262 439.64679683985275 1155.850132736443 447.17625968688844Q1157.3709845035592 454.70572253392413 1154.503804942602 463.33219321297827Q1151.6366253816445 471.9586638920324 1144.5310064697069 479.587854723797Q1137.4503195539514 487.21704555556164 1126.1311932872159 491.95412483018674Q1114.8369990166625 496.71613610099405 1099.4040933798574 496.36708815444274L1099.4040933798574 496.36708815444274Q1092.2236784793731 496.1925641811671 1082.9739078957627 493.6744325667611Q1073.7241373121528 491.15630095235514 1064.3995707399963 485.67126179226295Q1055.0500721716571 480.2111546283529 1047.4208813398923 471.13590801801854Q1039.7916905081279 462.08559340386637 1035.8524351113342 448.6223154654582Q1031.8882477183588 435.15903752705003 1033.6833514434798 416.83402033310557L1033.6833514434798 416.83402033310557Q1035.3039311953253 399.4314869979039 1042.409550107263 386.86576092205627Q1049.4902370230184 374.30003484620863 1059.8120834424644 366.29686407171044Q1070.1339298619105 358.31862529339446 1081.702376090469 354.27964191187203Q1093.2957543152093 350.2406585303496 1103.89185269266 350.0661345570739L1103.89185269266 350.0661345570739Q1114.4630190739285 349.6921546143403 1122.291665875151 353.2823620645825Q1130.0953806801917 356.8725695148247 1134.9321879395457 362.5321326481926Q1139.7939271950818 368.1916957815605 1141.489302935474 374.5742868042132Q1143.184678675866 380.9319458306838 1141.389574950745 386.1427330327714ZM1288.4135564373987 476.6209471781108L1288.4135564373987 476.6209471781108Q1288.5880804106746 479.8371746856194 1289.4108362846887 483.2528581625859Q1290.2086601625201 486.6685416395524 1291.4801919678139 489.361197227234L1291.4801919678139 489.361197227234Q1290.757164078529 490.08422511651895 1287.690528548114 491.87932884164Q1284.648825013881 493.6744325667611 1280.3355896743537 495.09555634914864Q1276.022354334827 496.5416121277184 1271.185547075473 496.1925641811671L1271.185547075473 496.1925641811671Q1264.1796561482643 495.64406026515786 1259.6171008469146 490.35847707452353Q1255.0296135493832 485.04796188770695 1255.0296135493832 476.79547115138644L1255.0296135493832 476.79547115138644Q1254.8550895761073 475.00036742626537 1254.8550895761073 473.0307397278686Q1254.8550895761073 471.0611120294718 1254.8550895761073 467.99447649905665L1254.8550895761073 467.99447649905665Q1255.0296135493832 460.0910337092874 1251.6139300724162 454.25694660264384Q1248.1982465954497 448.4228594960003 1242.4638874735351 445.2814279770384Q1236.7295283516205 442.1399964580765 1229.8981613976875 442.1399964580765L1229.8981613976875 442.1399964580765Q1220.0250909095216 442.1399964580765 1212.9444039937662 448.073811549449Q1205.8387850818285 454.00762664082146 1205.1157571925437 465.301820911375L1205.1157571925437 465.301820911375Q1205.1157571925437 466.9224006632204 1205.3900091505484 471.4101599760231Q1205.664261108553 475.89791928882585 1206.212765024562 480.38567860162857Q1206.7363369443892 484.8734379144313 1207.2848408603986 486.84306561282807L1207.2848408603986 486.84306561282807Q1205.3152131620018 489.0121492806827 1201.351025769026 491.2560289370841Q1197.4117703722322 493.49990859348543 1193.0985350327055 494.7465084025973Q1188.7852996931783 495.9931082117092 1185.5690721856695 495.4695362918822L1185.5690721856695 495.4695362918822Q1180.7073329301334 494.5719844293217 1176.2195736173308 489.0121492806827Q1171.7318143045281 483.42738213586154 1171.5572903312523 475.174891399541L1171.5572903312523 475.174891399541Q1171.5572903312523 473.55431164769556 1171.4575623465234 466.12457678538885Q1171.3827663579768 458.6699099268999 1171.2830383732476 447.52530763343975Q1171.208242384701 436.4056373361619 1171.1085143999721 423.56565930230965Q1171.0087864152429 410.7256812684574 1170.9339904266963 398.1599551926098Q1170.8342624419674 385.59422911676216 1170.7594664534208 375.19758670876917Q1170.6597384686916 364.77601230459396 1170.6597384686916 358.4931492666701Q1170.6597384686916 352.2102862287463 1170.6597384686916 352.2102862287463L1170.6597384686916 352.2102862287463Q1172.6293661670884 351.861238282195 1177.5659014111716 352.0357622554707Q1182.5024366552543 352.2102862287463 1188.0622718038935 353.6563420073161L1188.0622718038935 353.6563420073161Q1194.1706108685416 355.07746578970364 1199.2068740973536 358.4931492666701Q1204.218205329983 361.90883274363665 1204.9412332192683 368.36621975483615L1204.9412332192683 368.36621975483615Q1205.3152131620018 371.4328552852513 1205.4897371352772 375.0230627354935Q1205.664261108553 378.6132701857357 1205.664261108553 381.20619778868837Q1205.664261108553 383.79912539164104 1205.664261108553 383.79912539164104L1205.664261108553 383.79912539164104Q1205.664261108553 390.80501631884977 1208.9054206122437 396.813627398769Q1212.1216481197525 402.8471704748704 1217.78121125312 406.2379219556547Q1223.440774386488 409.6536054326212 1230.0726853709634 409.47908145934554L1230.0726853709634 409.47908145934554Q1239.596707912578 409.1300335127942 1244.8074951146655 403.3707423946974Q1249.9933503205712 397.6363832727828 1252.511481934977 386.6912369487806L1252.511481934977 386.6912369487806Q1253.2345098242617 383.6246014183654 1253.583557770813 377.96503828499755Q1253.9575377135466 372.3304071478119 1254.0323337020936 366.39659205643943Q1254.1320616868225 360.4627769650669 1254.1320616868225 356.34899759499774Q1254.1320616868225 352.2102862287463 1254.1320616868225 352.2102862287463L1254.1320616868225 352.2102862287463Q1256.1016893852193 351.861238282195 1260.589448698022 352.0357622554707Q1265.0772080108245 352.2102862287463 1270.1134712396365 353.2823620645825L1270.1134712396365 353.2823620645825Q1276.3963342775605 354.5538938698767 1282.0558974109285 358.0443733353899Q1287.690528548114 361.55978479708534 1288.4135564373987 368.36621975483615L1288.4135564373987 368.36621975483615Q1288.7875363801327 371.78190323180263 1288.962060353408 379.3113660788383Q1289.136584326684 386.86576092205627 1289.0368563419547 396.813627398769Q1288.962060353408 406.7864258716639 1288.7875363801327 418.0058241536707Q1288.5880804106746 429.22522243567755 1288.4135564373987 440.2700967444087Q1288.2390324641233 451.31497105313986 1288.2390324641233 460.73926561002554Q1288.2390324641233 470.1635601669113 1288.4135564373987 476.6209471781108ZM1444.413056549658 416.83402033310557L1444.413056549658 416.83402033310557Q1446.208160274779 433.5384577752046 1442.8922047825417 446.4532317976035Q1439.576249290304 459.3929378161847 1432.6451543516423 468.81723237307045Q1425.7389914091623 478.2415269299562 1416.4144248370058 484.2501380098754Q1407.0649262686666 490.2587490897946 1396.5685558759446 493.22565663548085Q1386.0721854832227 496.1925641811671 1375.8500670485055 496.1925641811671L1375.8500670485055 496.1925641811671Q1365.603016617606 496.1925641811671 1355.0069182401548 493.49990859348543Q1344.4357518588863 490.8072530058038 1335.0114573020005 485.04796188770695Q1325.5871627451147 479.3136027657924 1318.481543833177 470.1635601669113Q1311.4008569174216 460.9885855718479 1307.9851734404551 448.3480635074536Q1304.5694899634886 435.682609446877 1306.36459368861 419.0031040009602L1306.36459368861 419.0031040009602Q1307.8106494671797 404.6422741999915 1313.5450085890943 392.1513441126906Q1319.3042997071911 379.6853460215719 1328.4543423060718 370.4355754379618Q1337.6043849049533 361.1858048543518 1349.447083091516 356.07474563699316Q1361.2897812780789 350.9636864196344 1374.7530592164867 351.3127343661858L1374.7530592164867 351.3127343661858Q1375.6506110790474 351.3127343661858 1377.4457148041683 349.96640657234497Q1379.2408185292898 348.62007877850414 1382.307454059705 347.3734789693923Q1385.349157593938 346.1019471640982 1389.6623929334646 346.4759271068317L1389.6623929334646 346.4759271068317Q1397.7403596965096 347.19895499611664 1406.7158783221153 353.10783809130686Q1415.6913969477205 359.0416531826794 1423.7693637107654 368.8149956861164Q1431.8473304738104 378.6132701857357 1437.4071656224492 390.9795402921254Q1442.9670007710884 403.3707423946974 1444.413056549658 416.83402033310557ZM1376.3736389683322 462.9831452664269L1376.3736389683322 462.9831452664269Q1382.6565020062562 462.783689296969 1388.3160651396238 461.18804154130584Q1393.9756282729918 459.56746178946037 1398.4633875857949 455.2542264499333Q1402.9511468985975 450.9409911104063 1405.7185984748257 443.03754832063703Q1408.5109820472362 435.15903752705003 1408.685506020512 422.76783542447805L1408.685506020512 422.76783542447805Q1408.8600299937875 414.1413647454239 1404.9207745969939 406.063397982379Q1400.9815192002006 397.98543121933415 1393.9756282729918 392.32586808596625Q1386.969737345783 386.6912369487806 1377.9942187201777 385.79368508622L1377.9942187201777 385.79368508622Q1368.2956722052872 384.69667725420163 1361.4892372475365 387.6635847998879Q1354.6578702936035 390.6304923455741 1350.2698389655297 396.29005547894195Q1345.8568756412737 401.94961861230985 1343.5381999963256 408.9305775433363Q1341.1945923551953 415.93646847054504 1340.6460884391863 423.1168833710294L1340.6460884391863 423.1168833710294Q1339.5740126033502 435.50808547360134 1342.9896960803167 443.4115282633706Q1346.4053795572827 451.31497105313986 1352.1397386791978 455.60327439648466Q1357.8990297972946 459.91650973601173 1364.4312127970406 461.53708948785714Q1370.988327792969 463.1576692397026 1376.3736389683322 462.9831452664269ZM1597.1713971582262 350.2406585303496L1597.1713971582262 350.2406585303496Q1609.5625992607984 351.861238282195 1616.8427421460115 358.1441013201188Q1624.0979530350428 364.42696435804265 1626.4415606761731 372.6794550943632Q1628.7602363211213 380.9319458306838 1626.0675807334396 388.83538862045305L1626.0675807334396 388.83538862045305Q1624.995504897603 391.87709215468595 1622.8513532259308 398.80818709334795Q1620.6822695580763 405.7143500358277 1617.914817981848 414.8643926347088Q1615.1224344094371 424.0144352335899 1612.1555268637512 433.7129817484803Q1609.213551314247 443.4115282633706 1606.5208957265654 452.0130669462425Q1603.8282401388838 460.6395376252966 1601.9334084290335 466.5733527166691Q1600.0385767191838 472.48223581185937 1599.3404808260811 474.1028155637048L1599.3404808260811 474.1028155637048Q1596.09932132239 481.4577544374648 1592.9578898034283 485.5964658037162Q1589.8164582844665 489.7102451737854 1585.777474902944 491.60507688363543Q1581.7384915214216 493.49990859348543 1575.6301524567734 494.0234805133124L1575.6301524567734 494.0234805133124Q1571.3169171172462 494.397460456046 1567.6519136784573 492.1535807996446Q1563.961978243486 489.9097011432433 1561.3690506405337 486.6685416395524Q1558.7511910413987 483.42738213586154 1557.6791152055625 481.28323046418916L1557.6791152055625 481.28323046418916Q1558.7511910413987 480.2111546283529 1558.302415110118 476.9699951246621Q1557.853639178838 473.75376761715347 1556.607039369726 469.5153282661731Q1555.3604395606144 465.301820911375 1553.9143837820448 461.4373615031282Q1552.4683280034747 457.59783409106365 1551.5707761409144 455.428750423209L1551.5707761409144 455.428750423209Q1549.7756724157935 450.9409911104063 1547.531792759392 449.59466331656546Q1545.2879131029904 448.24833552272463 1543.3182854045936 448.4228594960003L1543.3182854045936 448.4228594960003Q1541.1741337329213 448.6223154654582 1538.9302540765198 450.5919431638549Q1536.6863744201187 452.5615708622517 1535.788822557558 456.1517783124939L1535.788822557558 456.1517783124939Q1535.2403186415486 458.4953859536242 1533.993718832437 462.7088933084223Q1532.7221870271428 466.9224006632204 1531.6501111913067 470.6123360981916Q1530.57803535547 474.27733953698043 1530.4035113821947 475.174891399541L1530.4035113821947 475.174891399541Q1528.2344277143402 482.7292862427589 1526.4393239892192 486.2197657082721Q1524.6442202640978 489.7102451737854 1522.7743205504298 490.8820489943505Q1520.87948884058 492.0538528149157 1518.012309279623 492.95140467747626L1518.012309279623 492.95140467747626Q1513.8735979133712 493.6744325667611 1509.311042612022 492.7768807042006Q1504.72355531449 491.87932884164 1500.5100479596922 489.8099731585143Q1496.2965406048938 487.7406174753886 1493.329633059208 485.4219418304406Q1490.3627255135216 483.0783341893102 1489.4651736509609 481.28323046418916L1489.4651736509609 481.28323046418916Q1491.8087812920912 479.3136027657924 1491.1854813875357 476.24696723537716Q1490.537249486797 473.20526370114425 1489.8391535936944 471.4101599760231L1489.8391535936944 471.4101599760231Q1488.0440498685734 466.74787668994475 1484.9774143381583 458.1214060108906Q1481.9357108039253 449.51986732801873 1478.0712513956787 438.64951699256324Q1474.2067919874316 427.7791666571078 1470.1678086059092 416.03619645527397Q1466.1288252243871 404.26829425725793 1462.26436581614 393.2234199485268Q1458.4248384040752 382.2034776359779 1455.2834068851134 373.40248298364804Q1452.1419753661517 364.6014883313183 1450.3468716410307 359.315905140684Q1448.5517679159093 354.0053899538674 1448.5517679159093 354.0053899538674L1448.5517679159093 354.0053899538674Q1451.244423503591 353.6563420073161 1456.9787826255056 353.20756607603585Q1462.7131417474202 352.75879014475555 1469.3699847280777 353.20756607603585Q1476.001895712553 353.6563420073161 1481.8359828191965 355.97501765226417Q1487.67006992584 358.31862529339446 1490.537249486797 363.5294124954821L1490.537249486797 363.5294124954821Q1491.2602773760823 364.6014883313183 1492.706333154652 369.5380235754013Q1494.1274569370394 374.4745588194843 1495.9225606621603 381.0316738154127Q1497.7176643872817 387.58878881134115 1499.437972123856 394.1209718110873Q1501.1333478642482 400.67808680701575 1502.3051516848132 405.3403700930941Q1503.4769555053786 410.02758537535476 1503.651479478654 410.92513723791535L1503.651479478654 410.92513723791535Q1504.898079287766 415.412896550718 1506.7929109976162 417.6567762071194Q1508.687742707466 419.9006558635208 1510.482846432587 420.2497038100721L1510.482846432587 420.2497038100721Q1514.4221018293806 421.14725567263264 1517.4638053636136 413.7923167988726L1517.4638053636136 413.7923167988726Q1517.837785306347 413.0692889095877 1518.8101331574544 409.03030552806524Q1519.807413004744 404.9913221465428 1521.2534687833136 398.8829830818947Q1522.674592565701 392.7746440172465 1524.1954443328177 386.0430050480424Q1525.7412280961162 379.3113660788383 1526.9878279052282 373.2279590103724Q1528.2344277143402 367.11961994572425 1529.0571835883538 362.9061125909261Q1529.8550074661857 358.6676732399458 1529.8550074661857 357.96957734684315L1529.8550074661857 357.96957734684315Q1532.5476630538674 355.8004936789885 1537.4094023094035 355.62596970571286Q1542.2462095687574 355.4514457324372 1546.8336968662893 357.321345446105Q1551.3962521676385 359.21617715595505 1553.016831919484 363.7039364687578L1553.016831919484 363.7039364687578Q1553.5653358354934 365.3245162206032 1555.2607115758856 370.8843513692421Q1556.9560873162777 376.444186517881 1559.3994229421369 384.0733773496457Q1561.8178265718138 391.7025681814103 1564.4107541747667 399.7057389559085Q1567.0286137739013 407.68397773422447 1569.5218133921253 414.1413647454239L1569.5218133921253 414.1413647454239Q1572.9374968690918 423.1168833710294 1577.4252561818944 423.49086331376293L1577.4252561818944 423.49086331376293Q1582.2869954374305 423.83991126031424 1585.5032229449394 414.1413647454239L1585.5032229449394 414.1413647454239Q1587.1238026967849 409.1300335127942 1588.74438244863 402.74744249014145Q1590.3649622004755 396.3648514674887 1591.7112899943163 389.7329404830136Q1593.0576177881571 383.1010294985384 1594.2044896125403 377.6159903384462Q1595.3762934331053 372.130951178354 1596.273845295666 369.08924764412103L1596.273845295666 369.08924764412103Q1597.894425047511 362.8063846061972 1597.9941530322403 358.31862529339446Q1598.068949020787 353.83086598059174 1597.1713971582262 350.2406585303496Z " fill="#214bf5" transform="matrix(0.537629656995954,0,0,0.537629656995954,0,73.44772800331074)"/></g></svg>